<svg width="181" height="216" viewBox="0 0 181 216" fill="none" xmlns="http://www.w3.org/2000/svg">
<path fill-rule="evenodd" clip-rule="evenodd" d="M155.979 151.21C163.318 159.876 170.665 168.542 178.026 177.195C178.449 177.697 178.943 178.147 179.437 178.597C179.69 178.828 179.943 179.058 180.186 179.296V181.907C179.946 181.684 179.695 181.467 179.445 181.25C178.933 180.807 178.42 180.364 177.99 179.858C162.808 161.95 147.633 144.034 132.458 126.118C122.338 114.169 112.217 102.22 102.094 90.2733C86.1822 71.482 70.2558 52.6995 54.3308 33.9185C50.8361 29.7971 47.3415 25.6758 43.8471 21.5545C43.4551 21.0909 43.0334 20.6515 42.5597 20.1579C42.3379 19.9267 42.1046 19.6837 41.8577 19.4208C40.7303 19.5968 39.6016 19.7705 38.4724 19.9443C35.7803 20.3586 33.0852 20.7734 30.3972 21.2207C21.251 22.7359 12.1067 24.258 2.96321 25.7798C-5.78555 27.236 -14.5335 28.6921 -23.2814 30.1419C-44.1916 33.6109 -65.1088 37.0733 -86.0261 40.5293C-92.5617 41.6086 -95.8823 42.1051 -102.129 43.0393L-103.071 43.1801C-103.917 43.3044 -108.997 44.0572 -108.997 44.0572C-108.997 44.0572 -110.567 45.5887 -111.341 46.3873C-116.949 52.1603 -122.608 57.8864 -128.265 63.6109C-129.926 65.2917 -131.587 66.9725 -133.246 68.6543C-133.791 69.2059 -134.351 69.7497 -134.982 70.3639C-135.355 70.7263 -135.753 71.1132 -136.188 71.5407C-148.915 59.9706 -161.684 48.4592 -174.465 36.9365C-187.092 25.5535 -199.73 14.1596 -212.353 2.68732C-218.202 2.71893 -224.702 2.71893 -231.445 2.71893C-238.188 2.71893 -245.175 2.71893 -252 2.75053V0.8911L-245.5 0.891083L-221.452 0.891093L-211.48 0.891089C-186.47 23.5901 -161.489 46.2629 -136.223 69.191C-131.545 64.4713 -126.935 59.8181 -122.334 55.1735C-118.269 51.071 -114.211 46.9752 -110.119 42.8463C-87.223 39.0647 -64.3036 35.2805 -41.3572 31.4918C-13.4268 26.8802 14.5436 22.262 42.5611 17.6339C43.0375 18.1703 43.5043 18.691 43.9626 19.2021C44.9807 20.3375 45.9567 21.426 46.9023 22.5363C67.2014 46.4593 87.5005 70.3822 107.785 94.3183C117.898 106.245 128.004 118.179 138.111 130.113C144.067 137.146 150.022 144.179 155.979 151.21ZM166.062 175.267L166.06 175.264L166.016 175.21C164.374 173.201 162.732 171.191 161.088 169.183L160.952 169.017C142.51 146.465 124.068 123.913 105.618 101.367C94.5185 87.8026 83.4132 74.2403 72.3075 60.6773L72.2332 60.5866L72.2113 60.5599C65.1294 51.9111 58.0474 43.2622 50.9664 34.6122C49.0822 32.3089 47.1922 30.0108 45.2533 27.6532L45.2445 27.6423C44.1229 26.2786 42.985 24.8949 41.8223 23.4787L-9.35638 31.1707L-9.48071 31.1894C-41.4483 35.9941 -73.3724 40.7923 -105.245 45.5821C-108.092 48.2802 -110.928 50.968 -113.759 53.6518L-113.81 53.6998C-121.999 61.4625 -130.155 69.1926 -138.447 77.0452C-150.595 65.3454 -162.633 53.6768 -174.622 42.0569L-174.624 42.0549C-186.364 30.6765 -198.055 19.3448 -209.753 8.07594C-211.278 8.07594 -212.801 8.07077 -214.314 8.06564H-214.314H-214.314C-217.307 8.0555 -220.255 8.0455 -223.077 8.07594C-229.269 8.14534 -235.104 8.12275 -241.079 8.09962H-241.079H-241.079C-244.12 8.08785 -247.197 8.07594 -250.375 8.07594C-250.602 8.08059 -251.147 8.07863 -251.572 8.07711H-251.572C-251.744 8.07649 -251.897 8.07594 -252 8.07594V9.5728C-251.776 9.58657 -251.381 9.58103 -251.057 9.57649H-251.057H-251.057C-250.919 9.57456 -250.794 9.5728 -250.7 9.5728C-242.42 9.5248 -234.203 9.5408 -225.986 9.5568C-221.878 9.5648 -217.769 9.5728 -213.653 9.5728C-212.431 9.55317 -210.728 9.5728 -210.728 9.5728C-210.728 9.5728 -209.185 11.0885 -208.524 11.7627C-206.05 14.2965 -203.485 16.7539 -200.921 19.2108C-200.127 19.9717 -199.333 20.7325 -198.542 21.4955C-179.187 40.1561 -160.75 57.9265 -141.381 76.574C-141.08 76.8644 -140.714 77.2554 -140.293 77.705L-140.293 77.7051C-139.841 78.1876 -139.326 78.7376 -138.76 79.3033C-137.669 78.3811 -136.035 76.8101 -135.043 75.8571L-134.958 75.7754C-130.781 71.773 -126.626 67.9097 -122.471 64.0464L-122.471 64.046C-118.316 60.1828 -114.162 56.3195 -109.984 52.3172C-106.922 49.3849 -103.881 46.9173 -103.881 46.9173C-103.881 46.9173 -100.058 46.3806 -96.4491 45.857C-86.8264 44.4738 -77.2125 43.018 -67.6004 41.5624L-67.5973 41.5619L-67.5883 41.5605C-64.9689 41.1639 -62.3495 40.7672 -59.7302 40.3721C-53.6094 39.4492 -47.4921 38.5165 -41.3748 37.5839C-35.2572 36.6511 -29.1396 35.7184 -23.0184 34.7955C-7.63599 32.4785 7.74641 30.1745 23.1359 27.8706C27.003 27.294 30.8731 26.7257 34.7481 26.1567L34.7608 26.1548C36.8194 25.8525 38.8794 25.55 40.9412 25.2459C41.1839 25.5182 41.4161 25.7726 41.6387 26.0165C42.0745 26.4938 42.4739 26.9314 42.8454 27.3863C44.3771 29.2557 45.9091 31.1251 47.4412 32.9946L47.4428 32.9966C53.1733 39.989 58.9045 46.9823 64.6223 53.9797C70.5658 61.2495 76.5072 68.5212 82.4489 75.7935L82.4492 75.7938C91.7858 87.221 101.123 98.6493 110.471 110.073C128.255 131.81 146.039 153.54 163.844 175.257C167.435 179.638 171.066 183.993 174.696 188.347C176.533 190.55 178.369 192.753 180.2 194.958V191.692C179.974 191.505 179.738 191.325 179.502 191.145L179.501 191.145C178.943 190.72 178.384 190.294 177.955 189.774C173.974 184.95 170.018 180.109 166.062 175.267ZM72.3846 69.132C82.2144 81.5893 92.0442 94.0466 101.881 106.499C117.263 125.974 132.659 145.439 148.06 164.909L148.078 164.931L148.107 164.968L148.288 165.196C153.691 172.027 159.094 178.858 164.498 185.69C168.017 190.138 171.553 194.577 175.09 199.018L175.091 199.019L175.092 199.02C176.795 201.159 178.498 203.297 180.2 205.437V208.049C179.48 207.194 178.752 206.346 178.025 205.497L178.022 205.495L178.022 205.494C176.488 203.706 174.955 201.918 173.5 200.077C159.075 181.808 144.665 163.533 130.254 145.256C124.946 138.525 119.638 131.793 114.329 125.061C97.4618 103.665 80.5873 82.2684 63.7057 60.8784C56.2182 51.3877 48.7165 41.9099 41.2148 32.4322L41.1951 32.4073L41.1685 32.3738C41.0003 32.1632 40.8138 31.9671 40.5644 31.7049C40.4029 31.5352 40.2152 31.3378 39.9891 31.0909C-6.31453 37.3024 -52.7887 43.54 -99.4333 49.8038C-113.118 62.1875 -126.837 74.6104 -140.721 87.1839C-141.926 85.9626 -143.108 84.7706 -144.274 83.5955C-146.276 81.5775 -148.228 79.6092 -150.163 77.6278C-154.361 73.3315 -158.563 69.0383 -162.765 64.7451C-177.159 50.0379 -191.552 35.3314 -205.796 20.5072C-206.99 19.2701 -209.625 16.7764 -209.625 16.7764C-209.625 16.7764 -213.214 16.5407 -215.537 16.4884C-224.108 16.0426 -232.801 15.7082 -241.426 15.3764C-244.966 15.2402 -248.495 15.1044 -252 14.9615L-251.986 13.4647C-249.67 13.6293 -247.645 13.7034 -245.372 13.7866C-243.512 13.8546 -241.487 13.9287 -239.001 14.0634C-236.36 14.2065 -234.239 14.2812 -232.041 14.3586C-229.641 14.4432 -227.148 14.531 -223.786 14.7146C-219.492 14.9492 -216.42 15.063 -213.349 15.1768L-213.348 15.1768C-211.813 15.2337 -210.277 15.2906 -208.588 15.3626C-190.079 34.3033 -171.655 53.1608 -153.1 72.1536L-140.685 84.8603C-127.861 73.2493 -115.281 61.8579 -102.722 50.4852L-102.479 50.2646L-102.272 50.0776L-100.3 48.2919C-56.1323 42.3705 -12.0646 36.4606 32.0382 30.5461L32.3092 30.5097L32.5568 30.4765L40.7138 29.3826C41.0008 29.6963 41.2746 29.9839 41.535 30.2576C42.0351 30.7832 42.4861 31.2571 42.8879 31.7651C52.7249 44.2174 62.5547 56.6747 72.3846 69.132ZM122.223 143.14C114.657 133.2 107.091 123.26 99.5254 113.319L99.456 113.228C81.1325 89.1544 62.8078 65.0791 44.4797 41.0071C43.4873 39.7036 42.4727 38.4148 41.4635 37.1327C40.9625 36.4963 40.4629 35.8616 39.9679 35.2276C38.7505 35.3724 37.5399 35.5165 36.335 35.6599C30.8385 36.3143 25.4597 36.9546 20.0809 37.5774C16.1265 38.0342 12.1706 38.4827 8.21461 38.9312C3.61263 39.4529 -0.989532 39.9746 -5.58963 40.5096C-9.53645 40.9692 -13.4801 41.442 -17.4236 41.9147C-21.793 42.4386 -26.1623 42.9624 -30.5354 43.4681C-35.3099 44.0198 -40.0844 44.5583 -44.8588 45.0969L-44.8629 45.0973C-50.1692 45.6958 -55.4754 46.2943 -60.7816 46.9109C-64.8861 47.387 -68.9885 47.8777 -73.0908 48.3683L-73.0917 48.3684C-79.6481 49.1526 -86.2043 49.9367 -92.7686 50.6614C-93.7064 50.7661 -95.4543 50.9428 -95.4543 50.9428C-95.4543 50.9428 -96.52 52.0228 -97.1097 52.5399C-111.389 65.0831 -125.69 77.5939 -139.997 90.111L-140.28 90.3585C-140.826 90.8357 -141.412 91.2706 -142.046 91.7411C-142.377 91.9868 -142.721 92.2422 -143.079 92.5184C-164.544 69.1059 -185.802 45.916 -207.181 22.5887C-222.059 21.1094 -236.965 19.6957 -251.993 18.3539V19.8397C-249.999 20.0303 -248.005 20.2213 -246.011 20.4123L-245.986 20.4147L-245.984 20.4148L-245.984 20.4148C-234.368 21.5274 -222.755 22.6397 -211.132 23.6948C-209.86 23.8126 -207.735 24.0286 -207.735 24.0286C-207.735 24.0286 -206.471 25.4293 -205.973 25.9726C-204.929 27.0955 -203.974 28.2562 -203.014 29.423L-203.014 29.4232C-202.1 30.5347 -201.181 31.6517 -200.176 32.7469L-153.09 84.1732C-150.933 86.5277 -148.76 88.8709 -146.535 91.2704C-145.389 92.5062 -144.23 93.7569 -143.051 95.0318C-126.681 80.6976 -110.51 66.5402 -94.5164 52.5399C-49.7759 47.3167 -5.39066 42.1329 38.9733 36.949C39.2016 37.2032 39.4165 37.4339 39.6189 37.6513L39.6195 37.652L39.6199 37.6524L39.6209 37.6535C40.022 38.0843 40.3742 38.4626 40.6856 38.8668C62.5336 67.5678 84.3674 96.2689 106.201 124.976C109.949 129.904 113.697 134.832 117.446 139.76C133.906 161.4 150.367 183.041 166.814 204.691C168.593 207.032 170.309 209.41 172.028 211.792L172.029 211.794C172.858 212.942 173.687 214.091 174.523 215.236H176.655C176.418 214.863 176.192 214.483 175.965 214.104C175.512 213.344 175.059 212.585 174.523 211.878C159.82 192.536 145.112 173.212 130.404 153.887L122.223 143.14ZM59.9004 69.4146C69.5838 82.6529 79.2673 95.8912 88.957 109.124C99.9929 124.196 111.031 139.267 122.067 154.336L122.448 154.856L122.479 154.898L122.653 155.136C131.445 167.139 140.235 179.142 149.023 191.142C152.668 196.118 156.321 201.089 159.974 206.06C162.217 209.111 164.46 212.163 166.701 215.216H163.859C163.733 214.966 163.621 214.709 163.508 214.452C163.274 213.92 163.04 213.388 162.7 212.925C151.467 197.552 140.221 182.183 128.974 166.814L128.907 166.723L128.891 166.7L128.874 166.677L128.857 166.654C121.186 156.17 113.514 145.686 105.846 135.2C97.1266 123.273 88.412 111.343 79.6967 99.4132L79.6155 99.302L79.5811 99.2549C73.0305 90.2877 66.4794 81.32 59.9258 72.3523C53.2613 63.2282 46.5897 54.1172 39.9109 45.0061C39.5444 44.5065 39.1351 44.0298 38.696 43.5183L38.6958 43.518L38.6944 43.5164L38.6939 43.5158C38.5123 43.3043 38.3256 43.0868 38.1347 42.8593C37.3563 42.9208 36.5848 42.9775 35.818 43.0339L35.8173 43.0339L35.8167 43.0339L35.8161 43.034L35.8154 43.034C34.2171 43.1515 32.6395 43.2674 31.0651 43.4222C25.3028 43.994 19.5416 44.5742 13.7802 45.1544C5.09932 46.0285 -3.58205 46.9028 -12.2686 47.7486C-20.1478 48.5169 -28.0313 49.2604 -35.9144 50.0038C-42.6037 50.6346 -49.2928 51.2654 -55.9788 51.9114C-60.583 52.3532 -64.314 52.7218 -67.9329 53.0793C-72.6239 53.5427 -77.1266 53.9875 -83.0988 54.5491C-83.7738 54.6146 -88.9107 54.968 -88.9107 54.968C-88.9107 54.968 -90.9641 56.3818 -91.6462 56.9644C-100.3 64.3736 -108.961 71.7829 -117.629 79.1856C-126.376 86.6544 -135.137 94.1101 -143.897 101.566L-143.899 101.567L-143.9 101.568L-143.901 101.569L-143.902 101.57L-143.918 101.583C-144.182 101.81 -144.468 102.014 -144.821 102.266L-144.821 102.266L-144.822 102.266L-144.822 102.266C-145.021 102.408 -145.24 102.565 -145.488 102.749C-157.678 88.5308 -169.835 74.3477 -181.979 60.1801C-190.263 50.5156 -198.541 40.8583 -206.819 31.2022C-208.958 30.8934 -211.084 30.5858 -213.202 30.2795L-213.211 30.2782L-213.24 30.2739L-213.256 30.2717L-213.258 30.2714L-213.258 30.2714C-217.943 29.5937 -222.586 28.9221 -227.232 28.2568C-229.396 27.9471 -231.56 27.6408 -233.724 27.3345C-239.612 26.5012 -245.499 25.6679 -251.375 24.7682C-251.506 24.7496 -251.655 24.7376 -251.809 24.7252C-251.872 24.7201 -251.936 24.7149 -252 24.7092V23.0795C-245.189 24.0602 -238.409 25.0371 -231.658 26.0097L-231.588 26.0197L-231.559 26.0239L-231.54 26.0266C-222.922 27.2683 -214.352 28.503 -205.831 29.7295C-185.561 53.3645 -165.503 76.7573 -145.261 100.366C-144.873 100.063 -144.506 99.7808 -144.154 99.5111L-144.154 99.5109C-143.428 98.9545 -142.769 98.4494 -142.142 97.9116C-138.293 94.6211 -134.441 91.3339 -130.589 88.0465L-130.588 88.0459L-130.587 88.0452L-130.587 88.0446L-130.586 88.044L-130.584 88.0428L-130.583 88.0415L-130.582 88.0403L-130.58 88.0391C-119.003 78.1594 -107.424 68.2788 -95.9376 58.3061C-93.9766 56.6109 -90.1399 53.5084 -90.1399 53.5084C-90.1399 53.5084 -85.9124 53.1354 -83.5819 52.9979C-75.8582 52.5452 -68.1603 51.7257 -60.4644 50.9064L-60.4642 50.9064L-60.464 50.9064L-60.4639 50.9064L-60.4638 50.9064L-60.4636 50.9064C-57.4768 50.5884 -54.4903 50.2705 -51.5026 49.974C-46.8012 49.5085 -42.1014 49.0314 -37.4017 48.5544L-37.3971 48.5539L-37.3962 48.5538L-37.3953 48.5537L-37.3944 48.5536C-32.1175 48.018 -26.8407 47.4823 -21.562 46.9632C-17.5065 46.5659 -13.4471 46.1884 -9.38783 45.8109L-9.38678 45.8108L-9.38573 45.8107L-9.38467 45.8106L-9.38362 45.8105C-5.68555 45.4666 -1.98763 45.1227 1.70706 44.764C5.58266 44.3876 9.45827 43.9982 13.3339 43.6088C17.2099 43.2193 21.0859 42.8298 24.9619 42.4535C28.1029 42.1466 31.2439 41.8632 34.4297 41.5757C36.0002 41.4341 37.5815 41.2914 39.1791 41.1444C39.9955 42.2546 40.8075 43.3548 41.6157 44.4497L41.6241 44.4611L41.6375 44.4793C42.8897 46.1758 44.1326 47.8598 45.3676 49.5486C50.2124 56.1701 55.0564 62.7923 59.9004 69.4146ZM138.778 189.84C133.044 181.684 127.312 173.527 121.579 165.37C112.351 152.239 103.122 139.107 93.8879 125.978L93.8503 125.924L93.8126 125.871L93.7751 125.817L93.7376 125.764L93.7 125.711L93.6626 125.657C77.0977 102.11 60.5327 78.5618 43.9607 55.0139C42.735 53.2719 41.4859 51.5434 40.2453 49.8267L40.2452 49.8264L40.245 49.8261L40.2448 49.8258L40.2446 49.8256C39.551 48.8657 38.86 47.9095 38.1772 46.9567L-3.44588 50.1512C-30.922 52.2599 -58.2598 54.3579 -85.4719 56.4473C-99.5122 68.1863 -113.413 79.8115 -127.352 91.4687L-127.387 91.4979C-134.047 97.0682 -140.716 102.646 -147.414 108.247L-148.71 106.625C-167.375 83.2799 -185.855 60.1647 -204.41 36.962C-207.357 36.3896 -210.302 35.816 -213.25 35.2421C-226.073 32.7451 -238.923 30.2427 -251.986 27.8052V29.4153C-251.891 29.4334 -251.796 29.4487 -251.703 29.4637C-251.593 29.4814 -251.486 29.4988 -251.382 29.5201C-246.124 30.528 -240.865 31.531 -235.606 32.534C-230.346 33.5371 -225.086 34.5403 -219.828 35.5483C-216.603 36.1669 -213.384 36.8117 -210.198 37.4497L-210.198 37.4497L-210.198 37.4497L-210.198 37.4498L-210.198 37.4498L-210.198 37.4498C-208.598 37.7703 -207.006 38.0891 -205.426 38.402L-202.507 42.0576C-184.208 64.9704 -166.01 87.7581 -147.741 110.623C-147.498 110.44 -147.288 110.284 -147.099 110.144C-146.685 109.836 -146.378 109.609 -146.085 109.366C-144.232 107.818 -142.38 106.27 -140.527 104.722L-140.512 104.709C-132.74 98.2169 -124.967 91.7229 -117.203 85.2203C-107.057 76.7246 -96.9111 68.2288 -86.8148 59.6872C-85.9337 58.9411 -84.392 57.7891 -84.392 57.7891C-84.392 57.7891 -73.4075 57.128 -69.4074 56.8269C-64.9828 56.4916 -60.5604 56.1478 -56.1378 55.804L-56.1347 55.8037L-56.1316 55.8035L-56.1284 55.8032L-56.1253 55.803L-56.1226 55.8028C-52.7809 55.543 -49.439 55.2832 -46.0957 55.027C-43.5523 54.8333 -41.0088 54.6437 -38.4653 54.4542C-34.6497 54.1698 -30.8342 53.8855 -27.0187 53.587C-21.1817 53.1321 -15.3471 52.6687 -9.51212 52.2052C-5.10509 51.8552 -0.697876 51.5051 3.71065 51.1587C4.98631 51.0587 6.26198 50.9586 7.53767 50.8584C14.028 50.3488 20.5191 49.8391 27.0152 49.3522C29.3328 49.178 31.6505 49.0343 34.0132 48.8878L34.0163 48.8876C35.1149 48.8195 36.2233 48.7508 37.3459 48.6781C37.9064 49.4713 38.4606 50.2534 39.0099 51.0287L39.0281 51.0544L39.0803 51.1281L39.0837 51.1329L39.0921 51.1447L39.1105 51.1707L39.1332 51.2027C40.1777 52.6769 41.2053 54.1275 42.2271 55.5833C46.5343 61.7037 50.8415 67.8236 55.1485 73.9433L55.1709 73.9752L55.1934 74.0071C66.168 89.6004 77.1416 105.192 88.1115 120.787C109.69 151.485 131.26 182.182 152.817 212.892C153.157 213.378 153.394 213.929 153.631 214.479C153.736 214.723 153.841 214.966 153.954 215.203H156.086C155.871 214.816 155.667 214.424 155.463 214.031L155.463 214.03L155.462 214.03L155.462 214.029L155.461 214.028C155.01 213.159 154.559 212.291 153.997 211.485C150.96 207.155 147.913 202.826 144.865 198.494L144.855 198.48L144.845 198.466L144.809 198.415L144.796 198.396C142.789 195.545 140.782 192.693 138.778 189.84ZM70.5556 102.024C77.4125 112.201 84.2697 122.379 91.1314 132.556C98.7486 143.853 106.368 155.15 113.989 166.447C123.953 181.221 133.919 195.995 143.879 210.772C144.644 211.901 145.392 213.037 146.139 214.172L146.141 214.176L146.153 214.194L146.165 214.212L146.177 214.23C146.396 214.563 146.615 214.896 146.835 215.229H144.704C137.051 203.853 129.399 192.478 121.74 181.102C107.48 159.922 93.2132 138.741 78.9392 117.567C71.8557 107.059 64.7668 96.554 57.6775 86.0481L57.6517 86.0101C53.2727 79.5206 48.8934 73.0308 44.5152 66.5401C43.4854 65.0156 42.4644 63.4879 41.4434 61.9601L41.435 61.9476C40.4161 60.4229 39.3971 58.8982 38.3693 57.3767C37.9522 56.7512 37.5053 56.1439 37.0534 55.53L37.0528 55.5291L37.0522 55.5284L37.052 55.5281C36.8425 55.2434 36.6318 54.9571 36.4226 54.667C36.1689 54.6487 35.9262 54.6247 35.6915 54.6016L35.6911 54.6015C35.1699 54.5501 34.688 54.5025 34.2129 54.5295C28.8554 54.838 23.5002 55.1551 18.146 55.4722L18.1434 55.4724L18.1409 55.4725L18.1383 55.4727L18.1357 55.4728L18.1332 55.4729L18.1306 55.4731C14.1739 55.7074 10.2178 55.9417 6.26161 56.1724C1.66464 56.4408 -2.93942 56.6764 -7.5435 56.9055C-11.218 57.0879 -14.8924 57.2668 -18.5665 57.4458L-18.5687 57.4459C-25.0461 57.7614 -31.5223 58.0768 -37.9957 58.4109C-50.7422 59.072 -79.546 60.5905 -79.546 60.5905C-79.546 60.5905 -81.3507 61.9846 -82.246 62.7242C-94.4949 72.8902 -106.789 83.0141 -119.082 93.1364L-119.109 93.1588L-119.136 93.1812L-119.39 93.3901C-122.325 95.807 -125.26 98.2237 -128.194 100.641C-131.737 103.557 -135.167 106.343 -138.608 109.138C-141.584 111.556 -144.569 113.98 -147.641 116.5C-148.106 116.886 -148.596 117.248 -149.091 117.612L-149.091 117.612L-149.091 117.612L-149.091 117.612C-149.435 117.865 -149.78 118.12 -150.12 118.385C-160.004 105.058 -169.856 91.7682 -179.712 78.4725L-179.776 78.3859C-187.866 67.472 -195.96 56.5541 -204.076 45.6083C-205.573 45.2433 -207.074 44.8765 -208.578 44.509L-208.584 44.5076L-208.592 44.5058C-212.072 43.6552 -215.568 42.8009 -219.068 41.9561C-223.547 40.8773 -228.029 39.8009 -232.511 38.7243L-232.514 38.7238C-238.773 37.2204 -245.034 35.7168 -251.289 34.2065C-251.456 34.1681 -251.626 34.1367 -251.801 34.1047L-251.801 34.1046C-251.864 34.093 -251.928 34.0812 -251.993 34.069V32.4196C-251.758 32.4458 -251.531 32.4851 -251.311 32.5374C-244.221 34.2345 -237.134 35.94 -230.046 37.6454L-230.042 37.6465L-230.038 37.6475L-230.035 37.6481L-230.033 37.6486L-230.032 37.6488L-230.031 37.649C-221.816 39.6259 -213.601 41.6026 -205.384 43.5662C-204.588 43.756 -203.33 43.9851 -203.33 43.9851C-203.33 43.9851 -202.037 45.412 -201.504 46.1385C-186.607 66.3174 -171.665 86.4615 -156.721 106.609L-153.957 110.335C-153.063 111.539 -152.147 112.731 -151.157 114.018L-151.155 114.021L-151.152 114.024C-150.68 114.639 -150.191 115.275 -149.68 115.944C-141.922 109.76 -134.365 103.511 -126.836 97.2843C-122.953 94.0732 -119.077 90.8682 -115.185 87.6814C-107.143 81.0933 -99.1211 74.4891 -91.001 67.8037L-90.9993 67.8022C-87.5271 64.9436 -84.037 62.0701 -80.5194 59.1767L-71.5017 58.6912C-35.4437 56.7501 0.821487 54.7978 37.3107 52.8343C38.4229 54.4703 39.5458 56.1133 40.6729 57.7626L40.6752 57.766L40.6761 57.7673L40.6814 57.7751C42.6043 60.5889 44.5395 63.4206 46.4549 66.2652C54.4647 78.1409 62.4683 90.0203 70.4724 101.9L70.5556 102.024ZM36.7722 59.2841L36.772 59.2838C36.6306 59.0996 36.487 58.9125 36.3441 58.7184C16.2495 59.2877 -3.81647 59.8551 -23.8516 60.4216L-23.9062 60.4231C-41.1713 60.9113 -58.4135 61.3988 -75.6314 61.8863C-83.152 68.0001 -90.6583 74.1027 -98.155 80.1973L-98.4924 80.4716L-99.6142 81.3835L-99.724 81.4729L-100.363 81.9927L-100.481 82.0883L-100.749 82.3064C-117.271 95.738 -133.747 109.133 -150.227 122.528C-150.575 122.816 -151.314 123.333 -151.314 123.333L-151.933 123.824C-151.933 123.824 -152.153 123.484 -152.387 123.189C-161.544 109.838 -170.744 96.4276 -179.965 82.9861L-179.992 82.947L-180.093 82.7993C-187.27 72.3363 -194.461 61.8547 -201.654 51.3681C-212.837 48.1803 -223.977 45.0041 -235.117 41.8279L-235.175 41.8114L-235.213 41.8005L-252 37.0143V38.6834C-251.993 38.6866 -251.988 38.6883 -251.982 38.6899H-251.982H-251.982H-251.982H-251.982C-251.977 38.6915 -251.972 38.6932 -251.964 38.6965C-249.266 39.4728 -246.566 40.2384 -243.864 41.0043L-243.86 41.0056C-241.825 41.5825 -239.79 42.1595 -237.754 42.7414C-226.138 46.0599 -214.528 49.3849 -202.783 52.7492C-192.965 67.0765 -183.141 81.4083 -173.278 95.7973L-173.168 95.9583L-173.008 96.191C-166.132 106.223 -159.236 116.284 -152.309 126.39C-134.597 112.004 -117.002 97.7104 -99.3931 83.4058C-91.2121 76.7598 -83.0282 70.1115 -74.8285 63.4507C-38.1523 62.41 -1.42628 61.3693 35.3353 60.3286C35.5836 60.6895 35.8191 61.0249 36.044 61.3453C36.4431 61.9137 36.8088 62.4347 37.1541 62.9663L38.6044 65.2036L38.6134 65.2173C43.4567 72.6889 48.3032 80.1655 53.1263 87.642C61.4027 100.472 69.6773 113.306 77.9519 126.139L77.9833 126.188L78.0148 126.237L78.0462 126.285L78.0776 126.334C86.3549 139.172 94.6322 152.009 102.911 164.844C106.221 169.975 109.533 175.105 112.844 180.236L112.874 180.282L112.904 180.328L112.934 180.374L112.963 180.421L112.994 180.467L113.024 180.514L113.054 180.561L113.077 180.597L113.093 180.621C119.844 191.08 126.596 201.539 133.328 212.009C133.761 212.686 134.058 213.44 134.355 214.195C134.491 214.542 134.628 214.889 134.777 215.229H137.619C134.354 210.177 131.087 205.124 127.819 200.072C122.621 192.033 117.422 183.993 112.226 175.951C105.127 164.961 98.0276 153.972 90.929 142.983L90.7387 142.688L90.3197 142.04C72.7283 114.808 55.1384 87.5779 37.5449 60.3482C37.3107 59.9858 37.0457 59.6405 36.7722 59.2841ZM72.9663 125.113L73.6994 126.302L74.7914 128.072C77.9953 133.265 81.1991 138.458 84.403 143.65C98.7054 166.827 113.008 190.004 127.303 213.174C127.585 213.63 127.826 214.111 128.066 214.591C128.171 214.8 128.275 215.009 128.383 215.216H126.252C125.229 213.524 124.209 211.83 123.189 210.136L123.187 210.133C120.656 205.929 118.124 201.723 115.551 197.544C98.883 170.473 82.1933 143.408 65.5035 116.343C55.6417 100.353 45.7728 84.3696 35.9039 68.386C35.6142 67.9179 35.2955 67.4631 34.9425 66.9595L34.9419 66.9587L34.9394 66.9551C34.7998 66.756 34.6548 66.5491 34.5042 66.3308H-70.1176C-97.9837 88.7287 -126.113 111.336 -154.554 134.192C-154.953 133.577 -155.34 132.985 -155.719 132.408L-155.719 132.407L-155.719 132.407C-156.4 131.368 -157.05 130.376 -157.68 129.375C-161.143 123.882 -164.605 118.388 -168.066 112.895L-168.088 112.86L-168.111 112.824L-168.133 112.788C-177.121 98.5251 -186.108 84.2638 -195.11 70.0092L-201.121 60.0212C-204.41 58.9335 -207.639 57.8644 -210.831 56.8074C-215.899 55.1294 -220.875 53.482 -225.853 51.8396C-228.445 50.9835 -231.038 50.1292 -233.631 49.275L-233.644 49.2707C-239.611 47.3047 -245.578 45.3386 -251.538 43.3503C-251.68 43.3045 -251.836 43.2653 -251.993 43.226V41.9169C-242.713 44.4434 -204.865 56.742 -200.048 58.9019C-189.533 75.5647 -178.964 92.3225 -168.301 109.228C-163.638 116.621 -158.957 124.042 -154.256 131.496C-150.205 128.632 -146.536 125.619 -142.914 122.645L-142.914 122.645L-142.913 122.645C-141.072 121.132 -139.242 119.63 -137.381 118.163C-133.659 115.23 -129.975 112.254 -126.29 109.279C-124.376 107.733 -122.462 106.187 -120.542 104.647C-117.979 102.592 -115.412 100.542 -112.845 98.4921L-112.838 98.4866C-109.87 96.117 -106.903 93.7478 -103.945 91.373C-100.909 88.9377 -97.88 86.4947 -94.8502 84.0513C-92.2776 81.9766 -89.7046 79.9017 -87.1271 77.8308C-82.9875 74.5082 -78.8439 71.1928 -74.7232 67.8959L-74.7027 67.8795C-73.3349 66.7851 -71.9697 65.6928 -70.6079 64.6029H35.5202C35.9007 65.2007 36.2856 65.8009 36.6722 66.4036C37.5847 67.8265 38.5062 69.2632 39.3996 70.7161C50.4011 88.5384 61.3989 106.364 72.3956 124.188L72.9663 125.113ZM31.3717 70.3077L29.3978 70.2374L29.3973 70.2374L29.3968 70.2373L29.3964 70.2373L29.3959 70.2373L29.3955 70.2373L29.395 70.2372L29.3945 70.2372L29.3941 70.2372L29.3936 70.2372C24.0771 70.0477 18.7598 69.8582 13.4377 69.7082C8.22926 69.5609 3.01944 69.4256 -2.19054 69.2902L-2.1953 69.2901C-8.56137 69.1247 -14.9277 68.9594 -21.2918 68.7722C-34.9903 68.373 -48.696 67.9672 -62.3945 67.4435C-63.6024 67.3977 -65.7055 67.3584 -65.7055 67.3584C-65.7055 67.3584 -67.5315 68.6937 -68.448 69.4202C-85.4098 82.9594 -102.401 96.4647 -119.392 109.97L-119.397 109.974C-126.02 115.238 -132.643 120.502 -139.264 125.768C-141.822 127.803 -144.369 129.852 -146.915 131.902C-148.818 133.433 -150.721 134.964 -152.629 136.49C-153.36 137.073 -154.112 137.638 -154.983 138.292C-155.372 138.584 -155.785 138.894 -156.231 139.232C-156.46 138.902 -156.681 138.595 -156.893 138.301L-156.894 138.299L-156.894 138.298C-157.37 137.636 -157.797 137.043 -158.156 136.418C-163.932 126.403 -169.695 116.383 -175.458 106.364L-175.462 106.357L-175.466 106.351L-175.469 106.344L-175.482 106.323C-177.119 103.475 -178.757 100.628 -180.395 97.7809C-181.504 95.857 -182.612 93.9335 -183.721 92.01L-183.721 92.0095C-187.765 84.9939 -191.808 77.9789 -195.834 70.9518L-198.705 65.9774C-198.831 65.922 -198.956 65.8662 -199.082 65.8105C-199.802 65.491 -200.525 65.1705 -201.263 64.8974C-218.166 58.6009 -235.068 52.3174 -251.979 46.0405V47.7684C-251.922 47.7881 -251.864 47.8077 -251.806 47.8274L-251.806 47.8274L-251.806 47.8276C-251.691 47.8668 -251.576 47.906 -251.467 47.9452C-245.347 50.2227 -239.225 52.4969 -233.103 54.7711C-226.979 57.0458 -220.856 59.3206 -214.734 61.5986C-211.6 62.7642 -208.469 63.9405 -205.269 65.1428L-205.263 65.1452L-205.25 65.15L-205.2 65.1688L-205.183 65.1752L-205.145 65.1895C-203.372 65.8556 -201.577 66.5297 -199.749 67.2144L-192.431 80.449V80.4555C-186.011 91.5728 -179.609 102.697 -173.207 113.82C-170.533 118.466 -167.859 123.113 -165.183 127.758C-162.746 131.986 -160.288 136.208 -157.83 140.423C-157.652 140.727 -157.434 141.014 -157.164 141.366C-157.033 141.537 -156.891 141.724 -156.735 141.935C-129.97 120.632 -103.34 99.4325 -76.7644 78.277L-76.3857 77.9756L-64.9807 68.8966C-45.4133 69.5149 -25.9237 70.1333 -6.43425 70.7517L-6.42555 70.7519L-6.27989 70.7566L-6.23018 70.7581C7.01299 71.1783 20.2561 71.5985 33.5236 72.0187C33.7914 72.446 34.0592 72.8637 34.3241 73.2767C34.8461 74.091 35.3566 74.8873 35.8328 75.7037C42.5512 87.1396 49.2655 98.5781 55.9799 110.017L56.025 110.094C64.406 124.372 72.7873 138.65 81.1772 152.925C88.7809 165.867 96.3988 178.803 104.017 191.74C108.45 199.268 112.883 206.797 117.313 214.326C117.432 214.526 117.53 214.733 117.629 214.942C117.672 215.033 117.716 215.125 117.761 215.216H119.893C104.91 189.742 89.9245 164.269 74.9417 138.801L74.5813 138.188C61.3356 115.672 48.0916 93.1593 34.8523 70.6507C34.5484 70.6078 34.2772 70.5582 34.0261 70.5122C33.6256 70.4388 33.2762 70.3748 32.9268 70.3627L31.3717 70.3077ZM35.14 78.8005C36.4318 81.0547 37.7001 83.268 38.9448 85.4886L39.092 85.7512C59.4557 122.114 79.8195 158.477 100.176 194.867C102.859 199.657 105.488 204.477 108.117 209.296L108.121 209.302L108.121 209.303L108.122 209.304L108.122 209.304L108.123 209.305L108.123 209.305L108.123 209.306L108.124 209.307C109.204 211.286 110.283 213.265 111.367 215.242H109.235C109.013 214.805 108.794 214.367 108.576 213.928L108.572 213.919L108.571 213.919C108.058 212.889 107.545 211.858 106.983 210.85C99.8822 198.126 92.7737 185.406 85.6653 172.687L85.6476 172.656L85.63 172.624L85.6123 172.592L85.5335 172.451L85.4551 172.311L85.3772 172.172L85.2997 172.033L85.2227 171.895L85.1462 171.758C80.8549 164.08 76.5637 156.402 72.2746 148.722C67.0287 139.328 61.7867 129.933 56.5446 120.538L56.4762 120.415L56.459 120.384L56.4418 120.353L56.3633 120.213L56.3536 120.195L56.3439 120.178L56.3342 120.161L56.3245 120.143C49.3289 107.606 42.3332 95.0679 35.3284 82.5301C34.765 81.5265 34.1559 80.5453 33.523 79.5259C33.19 78.9896 32.8505 78.4427 32.5076 77.8764C1.66464 75.8146 -29.0789 73.7594 -60.0995 71.6846C-82.015 88.9824 -103.968 106.315 -125.98 123.694L-126.107 123.794L-126.128 123.811L-126.649 124.222C-137.456 132.755 -148.278 141.299 -159.115 149.855C-159.303 149.549 -159.475 149.276 -159.634 149.024C-159.969 148.493 -160.246 148.054 -160.487 147.597C-163.58 141.663 -166.671 135.729 -169.761 129.795C-175.054 119.632 -180.346 109.47 -185.653 99.3122L-186.15 98.3631L-186.275 98.1224L-186.397 97.8858C-186.554 97.5833 -186.709 97.2827 -186.868 96.9821C-186.882 96.9526 -186.898 96.9232 -186.914 96.8937L-186.914 96.8935C-186.93 96.8641 -186.946 96.8347 -186.96 96.8053L-196.723 78.1971C-197.112 77.2948 -197.557 76.5015 -197.997 75.7197C-198.271 75.2312 -198.543 74.7472 -198.797 74.2438C-201.361 73.1835 -203.938 72.1177 -206.522 71.0487L-206.57 71.0288C-210.829 69.2668 -215.108 67.4963 -219.388 65.7284C-222.507 64.4387 -225.628 63.1507 -228.748 61.8628C-236.301 58.7451 -243.854 55.6277 -251.396 52.4873C-251.581 52.4088 -251.786 52.3433 -251.992 52.2779H-251.992L-251.992 52.2779L-251.993 52.2779L-251.993 52.2779L-251.993 52.2778V50.5695C-251.46 50.7528 -250.955 50.9361 -250.465 51.139C-242.019 54.6244 -233.574 58.1131 -225.129 61.6018L-225.122 61.6049L-225.117 61.607L-225.112 61.6091L-225.109 61.6101L-225.083 61.6211L-225.048 61.6352L-224.967 61.6688C-216.545 65.1481 -208.123 68.6274 -199.7 72.1035C-199.23 72.295 -198.735 72.4223 -198.233 72.5516L-198.233 72.5516L-198.144 72.5747L-192.879 81.7643C-181.987 102.618 -171.095 123.464 -160.181 144.311C-159.891 144.863 -159.527 145.384 -159.096 145.999L-159.096 145.999C-158.874 146.317 -158.633 146.661 -158.377 147.047C-142.048 134.165 -125.956 121.333 -109.9 108.529L-109.898 108.528C-93.7959 95.6876 -77.7286 82.8753 -61.4921 70.0679C-57.9562 70.2867 -54.3505 70.4989 -50.7413 70.7113L-50.741 70.7113C-44.8499 71.058 -38.9494 71.4053 -33.3277 71.7828C-27.4062 72.18 -21.4886 72.5987 -15.5718 73.0174C-10.1793 73.3989 -4.78743 73.7804 0.606018 74.1456C4.95174 74.4404 9.30165 74.7102 13.6523 74.98L13.6563 74.9803L13.6602 74.9805L13.6641 74.9808L13.6681 74.981L13.672 74.9813L13.6759 74.9815L13.6799 74.9818L13.6838 74.982L13.6878 74.9823L13.6917 74.9825C17.3444 75.2091 20.9977 75.4356 24.6495 75.6772C26.7047 75.8143 28.7598 75.9963 30.8194 76.1786L30.82 76.1787C31.8077 76.2662 32.7964 76.3537 33.7865 76.4364C34.2405 77.2307 34.6917 78.0181 35.14 78.8005ZM-68.5561 82.7201L-68.6744 82.8126L-68.6796 82.8167C-76.0229 88.5555 -83.3456 94.2782 -90.6654 100.006C-95.3761 103.695 -100.082 107.39 -104.789 111.086C-111.774 116.57 -118.76 122.056 -125.764 127.523C-129.674 130.577 -133.573 133.644 -137.481 136.719L-137.484 136.722L-137.485 136.722L-137.485 136.723L-137.486 136.723L-137.486 136.724L-137.487 136.724L-137.487 136.724L-137.488 136.725L-137.488 136.725C-145.161 142.762 -152.871 148.829 -160.778 154.882C-161.009 154.442 -161.219 154.053 -161.411 153.696C-161.78 153.013 -162.085 152.447 -162.355 151.871C-170.455 134.624 -196.573 79.9515 -196.573 79.9515C-202.649 77.2064 -208.73 74.4543 -214.798 71.7076C-227.294 66.0517 -239.74 60.4185 -251.993 54.9158V56.7223C-251.716 56.814 -251.446 56.9056 -251.211 57.0103C-240.116 62.084 -228.997 67.1151 -217.881 72.1449L-217.874 72.1485C-215.211 73.353 -212.55 74.5575 -209.888 75.7625C-207.272 76.9489 -204.656 78.1379 -202.059 79.3179L-202.042 79.3257L-202.041 79.3265C-200.547 80.0054 -199.059 80.6814 -197.582 81.3522C-196.964 82.6285 -184.971 107.978 -184.971 107.978C-184.962 107.994 -184.953 108.009 -184.943 108.025C-184.938 108.034 -184.932 108.043 -184.926 108.053C-184.917 108.069 -184.908 108.085 -184.9 108.103C-184.338 109.294 -183.777 110.485 -183.223 111.676L-182.484 113.228H-182.491C-180.24 118.01 -178.039 122.813 -175.839 127.616C-171.616 136.835 -167.393 146.053 -162.81 155.124C-162.515 155.702 -162.204 156.276 -161.831 156.964L-161.831 156.964C-161.749 157.117 -161.663 157.275 -161.574 157.44L-161.446 157.677L-157.979 154.96L-157.754 154.783L-157.115 154.282C-123.354 127.824 -89.7604 101.497 -56.1278 75.1342L-55.2042 74.3553L-43.0332 75.6905L-42.795 75.7161L-42.691 75.7273C-17.9232 78.3921 6.84502 81.0569 31.6906 83.7281C32.311 84.8865 32.9267 86.0348 33.5384 87.1756C35.5397 90.908 37.4978 94.5598 39.4351 98.2194C44.9561 108.627 50.4718 119.038 55.9875 129.449C61.5024 139.859 67.0173 150.268 72.5376 160.674C77.7475 170.498 82.969 180.316 88.1902 190.135C92.1116 197.509 96.0329 204.883 99.9488 212.258C100.332 212.979 100.685 213.714 101.038 214.45C101.162 214.71 101.287 214.97 101.412 215.229H103.544C80.0405 170.957 56.537 126.685 32.934 82.2358C19.1103 80.7493 5.28654 79.2643 -8.54884 77.778L-8.55901 77.7769L-8.56912 77.7758C-24.2734 76.0888 -39.9927 74.4001 -55.7441 72.7059C-60.0241 76.0522 -64.2936 79.3889 -68.5561 82.7201ZM41.2682 106.512C39.9531 103.896 38.6433 101.278 37.3335 98.6601L37.3141 98.6214C36.0122 96.0192 34.7102 93.4171 33.4029 90.8166C33.0954 90.1997 32.7567 89.5956 32.3989 88.9575C32.2442 88.6815 32.0859 88.3992 31.9251 88.1068C12.1626 85.0726 -7.5817 82.0383 -27.3042 79.0074L-27.32 79.005L-42.1593 76.7246L-51.2822 75.6904C-87.8732 104.202 -124.464 132.706 -161.069 161.198C-161.521 161.548 -162.111 161.987 -162.778 162.483L-162.782 162.486L-162.783 162.487L-163.144 162.756C-163.414 162.179 -163.669 161.54 -163.903 160.952L-163.903 160.951L-163.904 160.95L-163.904 160.95L-163.904 160.95L-163.904 160.949L-163.904 160.949C-164.034 160.624 -164.157 160.314 -164.274 160.039C-170.704 144.678 -197.767 85.2138 -197.767 85.2138C-215.494 76.6164 -231.312 69.2313 -248.5 61.2068L-251.993 59.576V61.101C-251.835 61.1759 -251.677 61.2538 -251.521 61.3306L-251.52 61.3313L-251.519 61.3317L-251.519 61.332L-251.517 61.3328L-251.516 61.3333L-251.515 61.3337L-251.515 61.3339L-251.514 61.3341L-251.507 61.3379C-251.436 61.3728 -251.366 61.4074 -251.296 61.4414C-238.897 67.5385 -226.498 73.6291 -214.099 79.7197L-214.08 79.7289C-211.135 81.1764 -209.014 82.1234 -206.879 83.0766L-206.879 83.0767L-206.879 83.0768L-206.879 83.077L-206.878 83.0771C-204.708 84.0461 -202.524 85.0216 -199.444 86.5359C-196.332 93.9827 -186.594 115.343 -177.915 134.38C-171.772 147.854 -166.161 160.163 -163.805 165.551C-154.387 158.214 -144.992 150.897 -135.616 143.593L-135.244 143.303C-106.824 121.165 -78.565 99.1527 -50.2945 77.1369L-32.2482 79.9072L-32.1366 79.9243L-31.8641 79.9661C-10.889 83.1861 9.96449 86.3874 30.7457 89.573C31.0354 90.1295 31.3069 90.6456 31.5649 91.1357C32.0472 92.0521 32.4819 92.8781 32.8985 93.7096C36.024 99.9388 39.146 106.168 42.2679 112.397L42.2693 112.399L42.2706 112.402L42.272 112.405L42.2734 112.408C46.9206 121.68 51.5674 130.951 56.2243 140.22C60.6172 148.968 65.0145 157.715 69.4118 166.462C76.2305 180.026 83.0494 193.59 89.8526 207.159C90.7546 208.963 91.5878 210.794 92.4212 212.626L92.4215 212.627L92.4217 212.628L92.422 212.628L92.4223 212.629L92.4226 212.629L92.4228 212.63L92.4231 212.63L92.4234 212.631L92.4237 212.631L92.4239 212.632L92.4242 212.632C92.8174 213.497 93.2106 214.361 93.6112 215.223H95.7427C94.7223 213.153 93.7062 211.08 92.6899 209.007L92.6879 209.003L92.6858 208.999C90.448 204.435 88.2092 199.869 85.9235 195.325C76.014 175.598 66.0919 155.87 56.1698 136.143C51.2021 126.266 46.2344 116.389 41.2682 106.512Z" fill="url(#paint0_linear_1345_1165)"/>
<defs>
<linearGradient id="paint0_linear_1345_1165" x1="-252" y1="9.87228" x2="85.0852" y2="233.854" gradientUnits="userSpaceOnUse">
<stop stop-color="#0BBD25"/>
<stop offset="1" stop-color="#0BBD25" stop-opacity="0"/>
</linearGradient>
</defs>
</svg>
