<svg width="518" height="486" viewBox="0 0 518 486" fill="none" xmlns="http://www.w3.org/2000/svg">
<g clip-path="url(#clip0_1912_1394)">
<path d="M414.834 472.924C390.944 472.924 369.224 467.475 348.591 455.489C326.872 443.502 316.013 428.247 316.013 412.991C316.013 386.839 347.505 368.314 348.591 367.224C349.677 366.135 380.084 349.789 419.178 349.789C443.069 349.789 464.788 355.238 485.421 367.224C507.141 379.211 518 394.466 518 409.722C518 435.874 486.507 454.399 485.421 455.489C484.336 455.489 455.015 472.924 414.834 472.924Z" fill="#282828"/>
<path d="M116.197 460.937C111.853 460.937 107.509 459.848 103.166 457.668L7.60168 402.094C3.25786 399.915 0 394.466 0 389.018C0 383.57 3.25786 378.121 7.60168 375.942L73.8449 337.803C78.1887 335.623 82.5325 334.534 86.8763 334.534C91.2201 334.534 95.5639 335.623 99.9077 337.803L196.558 393.377C200.901 395.556 204.159 401.004 204.159 406.453C204.159 411.901 200.901 416.26 196.558 419.529L129.229 457.668C124.885 459.848 120.541 460.937 116.197 460.937Z" fill="#282828"/>
<path d="M241.082 402.094C234.566 402.094 226.964 399.915 221.535 396.646L91.2201 321.457C85.7903 318.188 82.5325 311.65 82.5325 305.112C82.5325 298.574 85.7903 292.036 91.2201 288.767L292.122 174.35C295.379 173.26 297.551 172.17 300.809 172.17C304.067 172.17 307.325 173.26 309.497 174.35L449.585 256.076C455.015 259.345 458.272 265.883 458.272 272.422C458.272 278.96 455.015 285.498 449.585 288.767L260.629 397.735C255.199 401.005 248.683 402.094 241.082 402.094Z" fill="#282828"/>
<path d="M178.097 479.462C173.753 479.462 168.323 478.372 163.979 476.193C157.463 472.924 156.377 468.565 156.377 465.296C156.377 458.758 162.893 454.399 163.979 454.399C165.065 454.399 170.495 451.13 178.097 451.13C182.44 451.13 187.87 452.22 192.214 454.399C198.73 457.668 199.816 462.027 199.816 465.296C199.816 471.834 193.3 476.193 192.214 476.193C192.214 477.283 185.698 479.462 178.097 479.462Z" fill="#282828"/>
<path d="M312.755 440.233C308.411 438.054 304.067 436.964 298.638 436.964C291.036 436.964 284.52 440.233 284.52 440.233C283.434 440.233 282.348 441.323 280.176 443.502C279.09 442.413 276.918 440.233 274.747 439.144C270.403 436.964 266.059 435.874 260.629 435.874C253.027 435.874 246.512 439.144 246.512 439.144C245.426 439.144 243.254 441.323 241.082 443.502C239.996 441.323 237.824 438.054 233.48 435.874C229.136 433.695 224.793 432.605 219.363 432.605C211.761 432.605 205.245 435.874 205.245 435.874C204.16 436.964 197.644 440.233 197.644 446.771C197.644 450.04 198.73 454.399 205.245 457.668C208.503 458.758 211.761 459.848 215.019 460.937C213.933 462.027 207.417 465.296 207.417 471.834C207.417 475.103 208.503 479.462 215.019 482.731C219.363 484.91 223.707 486 229.136 486C236.738 486 243.254 482.731 243.254 482.731C244.34 481.641 249.77 479.462 250.856 474.013C251.941 476.193 254.113 479.462 258.457 482.731C262.801 484.91 267.145 486 272.575 486C280.176 486 286.692 482.731 286.692 482.731C287.778 481.641 294.294 478.372 294.294 471.834C294.294 469.655 293.208 467.475 292.122 465.296C294.294 465.296 296.466 466.386 298.638 466.386C306.239 466.386 312.755 463.117 312.755 463.117C313.841 462.027 320.357 458.758 320.357 452.22C320.357 447.861 319.271 443.502 312.755 440.233Z" fill="#282828"/>
<path d="M506.055 389.018C506.055 408.632 506.055 389.018 506.055 408.632C504.969 430.426 477.82 446.771 477.82 446.771C477.82 446.771 414.834 483.821 350.763 446.771C329.044 433.695 322.528 421.709 322.528 409.722C322.528 392.287 322.528 392.287 322.528 392.287L506.055 389.018Z" fill="url(#paint0_linear_1912_1394)"/>
<path d="M350.763 356.327C350.763 356.327 413.748 319.278 477.82 356.327C540.805 393.377 477.82 429.336 477.82 429.336C477.82 429.336 414.834 466.386 350.763 429.336C287.778 392.287 350.763 356.327 350.763 356.327Z" fill="#77EF89"/>
<path d="M412.662 392.287L324.7 403.184C314.927 377.031 350.763 356.327 350.763 356.327C350.763 356.327 371.396 344.341 401.803 341.072L412.662 392.287Z" fill="url(#paint1_linear_1912_1394)"/>
<path d="M412.662 389.018L324.7 399.915C314.927 373.762 350.763 353.058 350.763 353.058C350.763 353.058 371.396 341.072 401.803 337.803L412.662 389.018Z" fill="#77EF89"/>
<path d="M476.734 343.251C476.734 354.148 476.734 344.341 476.734 356.327L412.663 392.287L401.803 339.982C401.803 321.457 401.803 338.892 401.803 326.906L476.734 343.251Z" fill="url(#paint2_linear_1912_1394)"/>
<path d="M476.734 343.251L412.663 379.211L401.803 326.906C423.522 325.816 450.671 327.996 476.734 343.251Z" fill="#77EF89"/>
<path d="M501.711 378.121L412.662 392.287V386.839C446.327 373.762 497.367 368.314 501.711 372.673C501.711 378.121 501.711 372.673 501.711 378.121Z" fill="url(#paint3_linear_1912_1394)"/>
<path d="M501.711 372.673L412.662 386.839L476.734 349.789C490.851 357.417 498.453 365.045 501.711 372.673Z" fill="#77EF89"/>
<path d="M10.8594 393.377L107.509 448.951C112.939 452.22 120.541 452.22 125.971 448.951L194.386 409.722C196.558 408.632 197.644 406.453 197.644 403.184C197.644 396.646 197.644 403.184 197.644 396.646L6.51562 381.39C6.51562 387.928 6.51562 381.39 6.51562 387.928C6.51562 390.108 7.60158 392.287 10.8594 393.377Z" fill="url(#paint4_linear_1912_1394)"/>
<path d="M10.8594 387.928L107.509 443.502C112.939 446.771 120.541 446.771 125.971 443.502L194.386 404.274C199.815 401.004 199.815 394.466 194.386 391.197L96.6498 334.534C91.22 331.265 83.6183 331.265 78.1886 334.534L10.8594 373.762C5.42967 377.031 5.42967 384.659 10.8594 387.928Z" fill="url(#paint5_linear_1912_1394)"/>
<path d="M47.782 398.825L60.8134 406.453H61.8994L74.9308 398.825C76.0168 398.825 76.0168 397.735 74.9308 396.646L61.8994 389.018H60.8134L47.782 396.646C46.696 396.646 46.696 397.735 47.782 398.825Z" fill="#D6D8FC"/>
<path d="M66.2432 387.928L79.2746 395.556H80.3606L93.392 387.928C94.478 387.928 94.478 386.839 93.392 385.749L80.3606 378.121H79.2746L66.2432 385.749C65.1572 386.839 65.1572 387.928 66.2432 387.928Z" fill="#D6D8FC"/>
<path d="M83.6184 378.121L96.6499 385.749H97.7358L110.767 378.121C111.853 378.121 111.853 377.031 110.767 375.942L97.7358 368.314H96.6499L83.6184 375.942C82.5325 375.942 82.5325 377.031 83.6184 378.121Z" fill="#D6D8FC"/>
<path d="M102.08 367.224L115.111 374.852H116.197L129.228 367.224C130.314 367.224 130.314 366.135 129.228 365.045L116.197 357.417H115.111L102.08 365.045C100.994 366.135 100.994 367.224 102.08 367.224Z" fill="#8E94FF"/>
<path d="M66.2432 408.632L79.2746 416.26H80.3606L93.392 408.632C94.478 408.632 94.478 407.543 93.392 406.453L80.3606 398.825H79.2746L66.2432 406.453C65.1572 407.543 65.1572 408.632 66.2432 408.632Z" fill="#D6D8FC"/>
<path d="M83.6184 398.825L96.6499 406.453H97.7358L110.767 398.825C111.853 398.825 111.853 397.735 110.767 396.646L97.7358 389.018H96.6499L83.6184 396.646C82.5325 396.646 82.5325 397.735 83.6184 398.825Z" fill="#D6D8FC"/>
<path d="M102.08 387.928L115.111 395.556H116.197L129.228 387.928C130.314 387.928 130.314 386.839 129.228 385.749L116.197 378.121H115.111L102.08 385.749C100.994 386.839 100.994 387.928 102.08 387.928Z" fill="#D6D8FC"/>
<path d="M119.455 378.121L132.486 385.749H133.572L146.604 378.121C147.69 378.121 147.69 377.031 146.604 375.942L133.572 368.314H132.486L119.455 375.942C119.455 375.942 119.455 377.031 119.455 378.121Z" fill="#D6D8FC"/>
<path d="M83.6184 419.529L96.6499 427.157H97.7358L110.767 419.529C111.853 419.529 111.853 418.439 110.767 417.35L97.7358 409.722H96.6499L83.6184 417.35C82.5325 418.439 82.5325 418.439 83.6184 419.529Z" fill="#D6D8FC"/>
<path d="M102.08 408.632L115.111 416.26H116.197L129.228 408.632C130.314 408.632 130.314 407.543 129.228 406.453L116.197 398.825H115.111L102.08 406.453C100.994 407.543 100.994 408.632 102.08 408.632Z" fill="#D6D8FC"/>
<path d="M119.455 398.825L132.486 406.453H133.572L146.604 398.825C147.69 398.825 147.69 397.735 146.604 396.646L133.572 389.018H132.486L119.455 396.646C119.455 396.646 119.455 397.735 119.455 398.825Z" fill="#D6D8FC"/>
<path d="M137.916 387.928L150.948 395.556H152.034L165.065 387.928C166.151 387.928 166.151 386.839 165.065 385.749L152.034 379.211H150.948L137.916 386.839C136.83 386.839 136.83 387.928 137.916 387.928Z" fill="#D6D8FC"/>
<path d="M102.08 429.336L115.111 436.964H116.197L129.228 429.336C130.314 429.336 130.314 428.247 129.228 427.157L116.197 419.529H115.111L102.08 427.157C100.994 428.247 100.994 429.336 102.08 429.336Z" fill="#D6D8FC"/>
<path d="M119.455 419.529L132.486 427.157H133.572L146.604 419.529C147.69 419.529 147.69 418.439 146.604 417.35L133.572 409.722H132.486L119.455 417.35C118.369 417.35 118.369 418.439 119.455 419.529Z" fill="#D6D8FC"/>
<path d="M137.916 408.632L150.948 416.26H152.034L165.065 408.632C166.151 408.632 166.151 407.543 165.065 406.453L152.034 399.915H150.948L137.916 407.543C136.83 407.543 136.83 408.632 137.916 408.632Z" fill="#D6D8FC"/>
<path d="M155.292 398.825L168.323 406.453H169.409L182.44 398.825C183.526 398.825 183.526 397.735 182.44 396.646L169.409 389.018H168.323L155.292 396.646C155.292 396.646 155.292 397.735 155.292 398.825Z" fill="#D6D8FC"/>
<path d="M38.0083 391.197L105.337 351.969C106.423 350.879 106.423 349.789 105.337 349.789L92.306 342.161C91.2201 341.072 89.0482 341.072 87.9622 342.161L21.719 380.3C20.6331 381.39 20.6331 383.57 21.719 383.57L34.7505 391.197C34.7505 391.197 36.9224 391.197 38.0083 391.197Z" fill="#2D1A2D"/>
<path d="M105.337 350.879L91.2201 342.161C90.1341 341.072 87.9622 341.072 86.8763 342.161L20.6331 381.39L19.5471 382.48C19.5471 381.39 19.5471 380.3 20.6331 380.3L86.8763 341.072C87.9622 339.982 90.1341 339.982 91.2201 341.072L104.252 348.7C105.337 349.789 106.423 350.879 105.337 350.879Z" fill="url(#paint6_linear_1912_1394)"/>
<path d="M241.082 391.197C235.652 391.197 229.136 390.108 223.706 386.839L93.3919 311.65C89.0481 308.381 86.8762 305.112 86.8762 299.664C86.8762 295.305 86.8762 299.664 86.8762 293.126L456.101 257.166C456.101 264.794 456.101 257.166 456.101 264.794C456.101 269.152 453.929 273.511 449.585 276.78L258.457 386.839C253.027 390.108 246.511 391.197 241.082 391.197Z" fill="url(#paint7_linear_1912_1394)"/>
<path d="M224.792 379.211C234.566 384.659 246.511 384.659 257.371 379.211L448.499 269.152C451.757 266.973 453.929 263.704 453.929 259.345C453.929 254.987 451.757 251.717 448.499 249.538L307.325 167.812C304.067 165.632 299.723 165.632 296.465 167.812L94.4779 284.408C91.22 286.587 89.0481 289.857 89.0481 294.215C89.0481 298.574 91.22 301.843 94.4779 304.022L224.792 379.211Z" fill="#17101C"/>
<mask id="mask0_1912_1394" style="mask-type:alpha" maskUnits="userSpaceOnUse" x="86" y="163" width="371" height="223">
<path d="M241.082 385.749C235.652 385.749 229.136 384.659 223.706 381.39L93.3919 305.112C89.0481 302.933 86.8762 298.574 86.8762 294.215C86.8762 289.857 89.0481 285.498 93.3919 282.229L295.379 165.632C299.723 163.453 304.067 163.453 308.411 165.632L449.585 247.359C453.929 249.538 456.101 253.897 456.101 259.345C456.101 263.704 453.929 268.063 449.585 271.332L258.457 381.39C253.027 384.659 246.511 385.749 241.082 385.749ZM224.792 379.211C234.566 384.659 246.511 384.659 257.371 379.211L448.499 269.152C451.757 266.973 453.929 263.704 453.929 259.345C453.929 254.987 451.757 251.718 448.499 249.538L307.325 167.812C304.067 165.632 299.723 165.632 296.465 167.812L94.4779 284.408C91.22 286.587 89.0481 289.857 89.0481 294.215C89.0481 298.574 91.22 301.843 94.4779 304.022L224.792 379.211Z" fill="url(#paint8_linear_1912_1394)"/>
</mask>
<g mask="url(#mask0_1912_1394)">
<path d="M241.082 385.749C235.652 385.749 229.136 384.659 223.706 381.39L93.3919 305.112C89.0481 302.933 86.8762 298.574 86.8762 294.215C86.8762 289.857 89.0481 285.498 93.3919 282.229L295.379 165.632C299.723 163.453 304.067 163.453 308.411 165.632L449.585 247.359C453.929 249.538 456.101 253.897 456.101 259.345C456.101 263.704 453.929 268.063 449.585 271.332L258.457 381.39C253.027 384.659 246.511 385.749 241.082 385.749ZM224.792 379.211C234.566 384.659 246.511 384.659 257.371 379.211L448.499 269.152C451.757 266.973 453.929 263.704 453.929 259.345C453.929 254.987 451.757 251.718 448.499 249.538L307.325 167.812C304.067 165.632 299.723 165.632 296.465 167.812L94.4779 284.408C91.22 286.587 89.0481 289.857 89.0481 294.215C89.0481 298.574 91.22 301.843 94.4779 304.022L224.792 379.211Z" fill="url(#paint9_linear_1912_1394)"/>
</g>
<path opacity="0.15" d="M150.948 320.368L166.151 259.345L181.354 268.063L196.558 224.475L210.675 233.193L225.878 224.475L241.082 163.453L256.285 189.605L271.488 180.888L286.692 137.3L300.809 128.583L316.013 84.9955L331.216 111.148L361.623 41.4081L376.826 67.5605V189.605L150.948 320.368Z" fill="#53FF6C"/>
<path d="M150.948 320.368L166.151 259.345L181.354 268.063L196.558 224.475L210.675 233.193L225.878 224.475L241.082 163.453L256.285 189.605L271.488 180.888L286.692 137.3L300.809 128.583L316.013 84.9955L331.216 111.148L361.623 41.4081L376.826 67.5605" stroke="#5BFF74" stroke-miterlimit="10" stroke-linecap="round"/>
<path d="M421.35 111.148C406.147 119.865 406.147 67.5606 390.943 76.278C375.74 84.9955 375.74 154.735 360.537 163.453C345.333 172.17 345.333 137.3 330.13 146.018C314.927 154.735 314.927 224.475 299.723 233.193C284.52 241.91 284.52 189.605 269.317 198.323C254.113 207.04 254.113 294.215 238.91 302.933C223.707 311.65 223.707 259.345 208.503 268.063C193.3 276.78 193.3 329.085 178.096 337.803" stroke="#FF7E7E" stroke-width="0.1935" stroke-miterlimit="10" stroke-linecap="round"/>
<path d="M211.761 273.511C206.331 276.78 206.331 264.794 211.761 261.525C216.105 259.345 216.105 270.242 211.761 273.511Z" fill="#FF9292"/>
<path d="M241.082 308.381C235.652 311.65 235.652 299.664 241.082 296.395C246.512 294.215 246.512 306.202 241.082 308.381Z" fill="#FF9292"/>
<path d="M271.489 203.771C266.059 207.04 266.059 195.054 271.489 191.785C275.832 189.605 275.832 201.592 271.489 203.771Z" fill="#FF9292"/>
<path d="M301.895 238.641C296.466 241.91 296.466 229.924 301.895 226.655C306.239 224.475 306.239 236.462 301.895 238.641Z" fill="#FF9292"/>
<path d="M331.216 151.466C325.786 154.735 325.786 142.749 331.216 139.48C336.646 137.3 336.646 148.197 331.216 151.466Z" fill="#FF9292"/>
<path d="M361.623 168.901C356.193 172.17 356.193 160.184 361.623 156.915C367.052 154.735 367.052 165.632 361.623 168.901Z" fill="#FF9292"/>
<path d="M392.029 81.7265C386.6 84.9955 386.6 73.009 392.029 69.7399C396.373 67.5606 396.373 79.5471 392.029 81.7265Z" fill="#FF9292"/>
<path d="M241.082 337.803L256.285 329.085V363.955L241.082 372.673V337.803Z" fill="url(#paint10_linear_1912_1394)"/>
<path d="M271.489 268.063L286.692 259.345V346.52L271.489 355.238V268.063Z" fill="url(#paint11_linear_1912_1394)"/>
<path d="M300.809 215.758L316.013 207.04V329.085L300.809 337.803V215.758Z" fill="url(#paint12_linear_1912_1394)"/>
<path d="M331.216 250.628L346.419 241.91V311.65L331.216 320.368V250.628Z" fill="url(#paint13_linear_1912_1394)"/>
<path d="M361.623 198.323L376.826 189.605V294.215L361.623 302.933V198.323Z" fill="url(#paint14_linear_1912_1394)"/>
<path d="M392.029 146.018L406.147 137.3V276.78L392.029 285.498V146.018Z" fill="url(#paint15_linear_1912_1394)"/>
<path d="M421.35 93.713L436.553 84.9955V259.345L421.35 268.063V93.713Z" fill="url(#paint16_linear_1912_1394)"/>
<path d="M241.082 337.803V372.673L225.878 363.955V329.085L241.082 337.803Z" fill="url(#paint17_linear_1912_1394)"/>
<path d="M256.285 346.52V259.345L271.489 268.063V355.238L256.285 346.52Z" fill="url(#paint18_linear_1912_1394)"/>
<path d="M300.809 337.803L286.692 329.085V207.04L300.809 215.758V337.803Z" fill="url(#paint19_linear_1912_1394)"/>
<path d="M316.013 241.91L331.216 250.628V320.368L316.013 311.65V241.91Z" fill="url(#paint20_linear_1912_1394)"/>
<path d="M346.419 294.215L361.623 302.933V198.323L346.419 189.605V294.215Z" fill="url(#paint21_linear_1912_1394)"/>
<path d="M392.029 285.498L376.826 276.78V137.3L392.029 146.018V285.498Z" fill="url(#paint22_linear_1912_1394)"/>
<path d="M421.35 268.063L406.147 259.345V84.9955L421.35 93.713V268.063Z" fill="url(#paint23_linear_1912_1394)"/>
<path d="M225.878 329.085L241.082 337.803L256.285 329.085L241.082 320.368L225.878 329.085Z" fill="#53FB6B"/>
<path d="M256.285 259.345L271.489 268.063L286.692 259.345L271.489 250.628L256.285 259.345Z" fill="#53FB6B"/>
<path d="M286.692 207.04L300.809 215.758L316.013 207.04L300.809 198.323L286.692 207.04Z" fill="#53FB6B"/>
<path d="M316.013 241.91L331.216 250.628L346.419 241.91L331.216 233.193L316.013 241.91Z" fill="#FF5050"/>
<path d="M346.419 189.605L361.623 198.323L376.826 189.605L361.623 180.888L346.419 189.605Z" fill="#53FB6B"/>
<path d="M376.826 137.3L392.029 128.583L406.147 137.3L392.029 146.018L376.826 137.3Z" fill="#53FB6B"/>
<path d="M406.147 84.9955L421.35 93.713L436.553 84.9955L421.35 76.278L406.147 84.9955Z" fill="#53FB6B"/>
<path d="M120.541 285.498V250.628L135.744 241.91V276.78L120.541 285.498Z" fill="#0BBD25"/>
<path d="M129.228 238.641V286.587C129.228 286.587 129.228 288.767 128.142 288.767C127.056 288.767 127.056 287.677 127.056 287.677V239.731C127.056 239.731 127.056 237.552 128.142 237.552C129.228 236.462 129.228 238.641 129.228 238.641Z" fill="#0BBD25"/>
<path d="M150.948 250.628V215.758L166.151 207.04V241.91L150.948 250.628Z" fill="#0BBD25"/>
<path d="M159.635 203.771V251.717C159.635 251.717 159.635 253.897 158.549 253.897C157.463 253.897 157.463 252.807 157.463 252.807V204.861C157.463 204.861 157.463 202.682 158.549 202.682C159.635 202.682 159.635 203.771 159.635 203.771Z" fill="#0BBD25"/>
<path d="M181.354 198.323V146.018L196.558 137.3V189.605L181.354 198.323Z" fill="#0BBD25"/>
<path d="M188.956 131.852V200.502C188.956 200.502 188.956 202.682 187.87 202.682C186.784 202.682 186.784 201.592 186.784 201.592V132.942C186.784 132.942 186.784 130.762 187.87 130.762C188.956 130.762 188.956 131.852 188.956 131.852Z" fill="#0BBD25"/>
<path d="M210.675 163.453V93.713L225.878 84.9955V154.735L210.675 163.453Z" fill="#0BBD25"/>
<path d="M219.363 73.009V175.439C219.363 175.439 219.363 177.619 218.277 177.619C217.191 177.619 217.191 176.529 217.191 176.529V74.0987C217.191 74.0987 217.191 71.9193 218.277 71.9193C219.363 70.8296 219.363 73.009 219.363 73.009Z" fill="#0BBD25"/>
<path d="M241.082 93.713V128.583L256.285 119.865V84.9955L241.082 93.713Z" fill="#0BBD25"/>
<path d="M249.769 81.7265V129.673C249.769 129.673 249.769 131.852 248.683 131.852C247.597 131.852 247.597 130.762 247.597 130.762V82.8161C247.597 82.8161 247.597 80.6368 248.683 80.6368C249.769 79.5471 249.769 81.7265 249.769 81.7265Z" fill="#0BBD25"/>
<path d="M271.488 93.713V41.4081L286.692 32.6906V84.9955L271.488 93.713Z" fill="#0BBD25"/>
<path d="M279.09 22.8834V104.61C279.09 104.61 279.09 106.789 278.004 106.789C276.918 106.789 276.918 105.7 276.918 105.7V22.8834C276.918 22.8834 276.918 20.704 278.004 20.704C279.09 20.704 279.09 22.8834 279.09 22.8834Z" fill="#0BBD25"/>
<path d="M301.895 41.4081L316.012 32.6906V67.5605L301.895 76.278V41.4081Z" fill="#0BBD25"/>
<path d="M309.497 26.1525V77.3677C309.497 77.3677 309.497 79.5471 308.411 79.5471C307.325 79.5471 307.325 78.4574 307.325 78.4574V27.2421C307.325 27.2421 307.325 25.0628 308.411 25.0628C309.497 25.0628 309.497 26.1525 309.497 26.1525Z" fill="#0BBD25"/>
<path d="M331.216 49.0359V14.1659L346.419 5.44843V40.3184L331.216 49.0359Z" fill="#0BBD25"/>
<path d="M339.903 1.08969V52.3049C339.903 52.3049 339.903 54.4843 338.817 54.4843C337.731 54.4843 337.731 53.3946 337.731 53.3946V2.17937C337.731 2.17937 337.731 0 338.817 0C339.903 0 339.903 1.08969 339.903 1.08969Z" fill="#0BBD25"/>
<path d="M305.153 431.516C305.153 435.874 305.153 431.516 305.153 435.874C305.153 440.233 299.723 443.502 299.723 443.502C299.723 443.502 287.778 451.13 274.746 443.502C270.402 441.323 269.316 438.054 269.316 435.874C269.316 432.605 269.316 432.605 269.316 432.605L305.153 431.516Z" fill="url(#paint24_linear_1912_1394)"/>
<path d="M274.746 426.067C274.746 426.067 286.691 418.439 299.723 426.067C311.668 433.695 299.723 440.233 299.723 440.233C299.723 440.233 287.777 447.861 274.746 440.233C262.8 432.605 274.746 426.067 274.746 426.067Z" fill="#FFCC3E"/>
<path d="M305.153 428.247C305.153 432.605 305.153 428.247 305.153 432.605C305.153 436.964 299.723 440.233 299.723 440.233C299.723 440.233 287.778 447.861 274.746 440.233C270.402 438.054 269.316 434.785 269.316 432.605C269.316 429.336 269.316 429.336 269.316 429.336L305.153 428.247Z" fill="url(#paint25_linear_1912_1394)"/>
<path d="M274.746 421.709C274.746 421.709 286.691 414.081 299.723 421.709C311.668 429.336 299.723 435.874 299.723 435.874C299.723 435.874 287.777 443.502 274.746 435.874C262.8 428.247 274.746 421.709 274.746 421.709Z" fill="#FFCC3E"/>
<path d="M305.153 423.888C305.153 428.247 305.153 423.888 305.153 428.247C305.153 432.605 299.723 435.874 299.723 435.874C299.723 435.874 287.778 443.502 274.746 435.874C270.402 433.695 269.316 430.426 269.316 428.247C269.316 424.978 269.316 424.978 269.316 424.978L305.153 423.888Z" fill="url(#paint26_linear_1912_1394)"/>
<path d="M274.746 417.35C274.746 417.35 286.691 409.722 299.723 417.35C311.668 424.978 299.723 431.516 299.723 431.516C299.723 431.516 287.777 439.143 274.746 431.516C262.8 423.888 274.746 417.35 274.746 417.35Z" fill="#FFCC3E"/>
<path d="M305.153 419.529C305.153 423.888 305.153 419.529 305.153 423.888C305.153 428.247 299.723 431.516 299.723 431.516C299.723 431.516 287.778 439.143 274.746 431.516C270.402 429.336 269.316 426.067 269.316 423.888C269.316 420.619 269.316 420.619 269.316 420.619L305.153 419.529Z" fill="url(#paint27_linear_1912_1394)"/>
<path d="M274.746 412.991C274.746 412.991 286.691 405.363 299.723 412.991C311.668 420.619 299.723 427.157 299.723 427.157C299.723 427.157 287.777 434.785 274.746 427.157C262.8 419.529 274.746 412.991 274.746 412.991Z" fill="#FFCC3E"/>
<path d="M305.153 415.17C305.153 419.529 305.153 415.17 305.153 419.529C305.153 423.888 299.723 427.157 299.723 427.157C299.723 427.157 287.778 434.785 274.746 427.157C270.402 424.978 269.316 421.709 269.316 419.529C269.316 416.26 269.316 416.26 269.316 416.26L305.153 415.17Z" fill="url(#paint28_linear_1912_1394)"/>
<path d="M274.746 408.632C274.746 408.632 286.691 401.004 299.723 408.632C311.668 416.26 299.723 422.798 299.723 422.798C299.723 422.798 287.777 430.426 274.746 422.798C262.8 416.26 274.746 408.632 274.746 408.632Z" fill="#FFCC3E"/>
<path d="M305.153 410.812C305.153 415.17 305.153 410.812 305.153 415.17C305.153 419.529 299.723 422.798 299.723 422.798C299.723 422.798 287.778 430.426 274.746 422.798C270.402 420.619 269.316 417.35 269.316 415.17C269.316 411.901 269.316 411.901 269.316 411.901L305.153 410.812Z" fill="url(#paint29_linear_1912_1394)"/>
<path d="M274.746 404.274C274.746 404.274 286.691 396.646 299.723 404.274C311.668 411.901 299.723 418.439 299.723 418.439C299.723 418.439 287.777 426.067 274.746 418.439C262.8 411.901 274.746 404.274 274.746 404.274Z" fill="#FFCC3E"/>
<path d="M305.153 406.453C305.153 410.812 305.153 406.453 305.153 410.812C305.153 415.17 299.723 418.439 299.723 418.439C299.723 418.439 287.778 426.067 274.746 418.439C270.402 416.26 269.316 412.991 269.316 410.812C269.316 407.543 269.316 407.543 269.316 407.543L305.153 406.453Z" fill="url(#paint30_linear_1912_1394)"/>
<path d="M274.746 399.915C274.746 399.915 286.691 392.287 299.723 399.915C311.668 407.543 299.723 414.081 299.723 414.081C299.723 414.081 287.777 421.709 274.746 414.081C262.8 407.543 274.746 399.915 274.746 399.915Z" fill="#FFCC3E"/>
<path d="M305.153 402.094C305.153 406.453 305.153 402.094 305.153 406.453C305.153 410.812 299.723 414.081 299.723 414.081C299.723 414.081 287.778 421.709 274.746 414.081C270.402 411.901 269.316 408.632 269.316 406.453C269.316 403.184 269.316 403.184 269.316 403.184L305.153 402.094Z" fill="url(#paint31_linear_1912_1394)"/>
<path d="M274.746 395.556C274.746 395.556 286.691 387.928 299.723 395.556C311.668 403.184 299.723 409.722 299.723 409.722C299.723 409.722 287.777 417.35 274.746 409.722C262.8 403.184 274.746 395.556 274.746 395.556Z" fill="#FFCC3E"/>
<path d="M305.153 397.735C305.153 402.094 305.153 397.735 305.153 402.094C305.153 406.453 299.723 409.722 299.723 409.722C299.723 409.722 287.778 417.35 274.746 409.722C270.402 407.543 269.316 404.274 269.316 402.094C269.316 398.825 269.316 398.825 269.316 398.825L305.153 397.735Z" fill="url(#paint32_linear_1912_1394)"/>
<path d="M274.746 392.287C274.746 392.287 286.691 384.659 299.723 392.287C311.668 399.915 299.723 406.453 299.723 406.453C299.723 406.453 287.777 414.081 274.746 406.453C262.8 398.825 274.746 392.287 274.746 392.287Z" fill="#FFCC3E"/>
<path d="M305.153 394.466C305.153 398.825 305.153 394.466 305.153 398.825C305.153 403.184 299.723 406.453 299.723 406.453C299.723 406.453 287.778 414.081 274.746 406.453C270.402 404.274 269.316 401.004 269.316 398.825C269.316 395.556 269.316 395.556 269.316 395.556L305.153 394.466Z" fill="url(#paint33_linear_1912_1394)"/>
<path d="M274.746 387.928C274.746 387.928 286.691 380.3 299.723 387.928C311.668 395.556 299.723 402.094 299.723 402.094C299.723 402.094 287.777 409.722 274.746 402.094C262.8 394.466 274.746 387.928 274.746 387.928Z" fill="#FFCC3E"/>
<path d="M305.153 390.108C305.153 394.466 305.153 390.108 305.153 394.466C305.153 398.825 299.723 402.094 299.723 402.094C299.723 402.094 287.778 409.722 274.746 402.094C270.402 399.915 269.316 396.646 269.316 394.466C269.316 391.197 269.316 391.197 269.316 391.197L305.153 390.108Z" fill="url(#paint34_linear_1912_1394)"/>
<path d="M274.746 383.57C274.746 383.57 286.691 375.942 299.723 383.57C311.668 391.197 299.723 397.735 299.723 397.735C299.723 397.735 287.777 405.363 274.746 397.735C262.8 390.108 274.746 383.57 274.746 383.57Z" fill="#FFCC3E"/>
<path d="M305.153 385.749C305.153 390.108 305.153 385.749 305.153 390.108C305.153 394.466 299.723 397.735 299.723 397.735C299.723 397.735 287.778 405.363 274.746 397.735C270.402 395.556 269.316 392.287 269.316 390.108C269.316 386.839 269.316 386.839 269.316 386.839L305.153 385.749Z" fill="url(#paint35_linear_1912_1394)"/>
<path d="M274.746 379.211C274.746 379.211 286.691 371.583 299.723 379.211C311.668 386.839 299.723 393.377 299.723 393.377C299.723 393.377 287.777 401.004 274.746 393.377C262.8 385.749 274.746 379.211 274.746 379.211Z" fill="#FFCC3E"/>
<path d="M305.153 381.39C305.153 385.749 305.153 381.39 305.153 385.749C305.153 390.108 299.723 393.377 299.723 393.377C299.723 393.377 287.778 401.004 274.746 393.377C270.402 391.197 269.316 387.928 269.316 385.749C269.316 382.48 269.316 382.48 269.316 382.48L305.153 381.39Z" fill="url(#paint36_linear_1912_1394)"/>
<path d="M274.746 374.852C274.746 374.852 286.691 367.224 299.723 374.852C311.668 382.48 299.723 389.018 299.723 389.018C299.723 389.018 287.777 396.646 274.746 389.018C262.8 382.48 274.746 374.852 274.746 374.852Z" fill="#FFCC3E"/>
<path d="M305.153 377.031C305.153 381.39 305.153 377.031 305.153 381.39C305.153 385.749 299.723 389.018 299.723 389.018C299.723 389.018 287.778 396.646 274.746 389.018C270.402 386.839 269.316 383.57 269.316 381.39C269.316 378.121 269.316 378.121 269.316 378.121L305.153 377.031Z" fill="url(#paint37_linear_1912_1394)"/>
<path d="M274.746 370.493C274.746 370.493 286.691 362.865 299.723 370.493C311.668 378.121 299.723 384.659 299.723 384.659C299.723 384.659 287.777 392.287 274.746 384.659C262.8 378.121 274.746 370.493 274.746 370.493Z" fill="#FFCC3E"/>
<path d="M305.153 372.673C305.153 377.031 305.153 372.673 305.153 377.031C305.153 381.39 299.723 384.659 299.723 384.659C299.723 384.659 287.778 392.287 274.746 384.659C270.402 382.48 269.316 379.211 269.316 377.031C269.316 373.762 269.316 373.762 269.316 373.762L305.153 372.673Z" fill="url(#paint38_linear_1912_1394)"/>
<path d="M274.746 366.135C274.746 366.135 286.691 358.507 299.723 366.135C311.668 373.762 299.723 380.3 299.723 380.3C299.723 380.3 287.777 387.928 274.746 380.3C262.8 373.762 274.746 366.135 274.746 366.135Z" fill="#FFCC3E"/>
<path d="M233.48 441.323C233.48 445.682 233.48 441.323 233.48 445.682C233.48 450.04 228.05 453.309 228.05 453.309C228.05 453.309 216.105 460.937 203.073 453.309C198.729 451.13 197.643 447.861 197.643 445.682C197.643 442.413 197.643 442.413 197.643 442.413L233.48 441.323Z" fill="url(#paint39_linear_1912_1394)"/>
<path d="M204.159 434.785C204.159 434.785 216.104 427.157 229.136 434.785C241.081 442.413 229.136 448.951 229.136 448.951C229.136 448.951 217.19 456.578 204.159 448.951C191.127 441.323 204.159 434.785 204.159 434.785Z" fill="#FFCC3E"/>
<path d="M233.48 436.964C233.48 441.323 233.48 436.964 233.48 441.323C233.48 445.682 228.05 448.951 228.05 448.951C228.05 448.951 216.105 456.579 203.073 448.951C198.729 446.771 197.643 443.502 197.643 441.323C197.643 438.054 197.643 438.054 197.643 438.054L233.48 436.964Z" fill="url(#paint40_linear_1912_1394)"/>
<path d="M204.159 430.426C204.159 430.426 216.104 422.798 229.136 430.426C241.081 438.054 229.136 444.592 229.136 444.592C229.136 444.592 217.19 452.22 204.159 444.592C191.127 436.964 204.159 430.426 204.159 430.426Z" fill="#FFCC3E"/>
<path d="M233.48 432.605C233.48 436.964 233.48 432.605 233.48 436.964C233.48 441.323 228.05 444.592 228.05 444.592C228.05 444.592 216.105 452.22 203.073 444.592C198.729 442.413 197.643 439.143 197.643 436.964C197.643 433.695 197.643 433.695 197.643 433.695L233.48 432.605Z" fill="url(#paint41_linear_1912_1394)"/>
<path d="M204.159 426.067C204.159 426.067 216.104 418.439 229.136 426.067C241.081 433.695 229.136 440.233 229.136 440.233C229.136 440.233 217.19 447.861 204.159 440.233C191.127 433.695 204.159 426.067 204.159 426.067Z" fill="#FFCC3E"/>
<path d="M233.48 428.247C233.48 432.605 233.48 428.247 233.48 432.605C233.48 436.964 228.05 440.233 228.05 440.233C228.05 440.233 216.105 447.861 203.073 440.233C198.729 438.054 197.643 434.785 197.643 432.605C197.643 429.336 197.643 429.336 197.643 429.336L233.48 428.247Z" fill="url(#paint42_linear_1912_1394)"/>
<path d="M204.159 421.709C204.159 421.709 216.104 414.081 229.136 421.709C241.081 429.336 229.136 435.874 229.136 435.874C229.136 435.874 217.19 443.502 204.159 435.874C191.127 429.336 204.159 421.709 204.159 421.709Z" fill="#FFCC3E"/>
<path d="M273.66 443.502C273.66 447.861 273.66 443.502 273.66 447.861C273.66 452.22 268.23 455.489 268.23 455.489C268.23 455.489 256.285 463.117 243.253 455.489C238.91 453.309 237.824 450.04 237.824 447.861C237.824 444.592 237.824 444.592 237.824 444.592L273.66 443.502Z" fill="url(#paint43_linear_1912_1394)"/>
<path d="M243.253 436.964C243.253 436.964 255.198 429.336 268.23 436.964C280.175 444.592 268.23 451.13 268.23 451.13C268.23 451.13 256.284 458.758 243.253 451.13C231.307 444.592 243.253 436.964 243.253 436.964Z" fill="#FFCC3E"/>
<path d="M273.66 439.144C273.66 443.502 273.66 439.144 273.66 443.502C273.66 447.861 268.23 451.13 268.23 451.13C268.23 451.13 256.285 458.758 243.253 451.13C238.91 448.951 237.824 445.682 237.824 443.502C237.824 440.233 237.824 440.233 237.824 440.233L273.66 439.144Z" fill="url(#paint44_linear_1912_1394)"/>
<path d="M243.253 433.695C243.253 433.695 255.198 426.067 268.23 433.695C280.175 441.323 268.23 447.861 268.23 447.861C268.23 447.861 256.284 455.489 243.253 447.861C231.307 440.233 243.253 433.695 243.253 433.695Z" fill="#FFCC3E"/>
<path d="M273.66 435.874C273.66 440.233 273.66 435.874 273.66 440.233C273.66 444.592 268.23 447.861 268.23 447.861C268.23 447.861 256.285 455.489 243.253 447.861C238.91 445.682 237.824 442.413 237.824 440.233C237.824 436.964 237.824 436.964 237.824 436.964L273.66 435.874Z" fill="url(#paint45_linear_1912_1394)"/>
<path d="M243.253 429.336C243.253 429.336 255.198 421.709 268.23 429.336C280.175 436.964 268.23 443.502 268.23 443.502C268.23 443.502 256.284 451.13 243.253 443.502C231.307 435.874 243.253 429.336 243.253 429.336Z" fill="#FFCC3E"/>
<path d="M273.66 431.516C273.66 435.874 273.66 431.516 273.66 435.874C273.66 440.233 268.23 443.502 268.23 443.502C268.23 443.502 256.285 451.13 243.253 443.502C238.91 441.323 237.824 438.054 237.824 435.874C237.824 432.605 237.824 432.605 237.824 432.605L273.66 431.516Z" fill="url(#paint46_linear_1912_1394)"/>
<path d="M243.253 424.978C243.253 424.978 255.198 417.35 268.23 424.978C280.175 432.605 268.23 439.144 268.23 439.144C268.23 439.144 256.284 446.771 243.253 439.144C231.307 431.516 243.253 424.978 243.253 424.978Z" fill="#FFCC3E"/>
<path d="M273.66 427.157C273.66 431.516 273.66 427.157 273.66 431.516C273.66 435.874 268.23 439.144 268.23 439.144C268.23 439.144 256.285 446.771 243.253 439.144C238.91 436.964 237.824 433.695 237.824 431.516C237.824 428.247 237.824 428.247 237.824 428.247L273.66 427.157Z" fill="url(#paint47_linear_1912_1394)"/>
<path d="M243.253 420.619C243.253 420.619 255.198 412.991 268.23 420.619C280.175 428.247 268.23 434.785 268.23 434.785C268.23 434.785 256.284 442.413 243.253 434.785C231.307 427.157 243.253 420.619 243.253 420.619Z" fill="#FFCC3E"/>
<path d="M273.66 422.798C273.66 427.157 273.66 422.798 273.66 427.157C273.66 431.516 268.23 434.785 268.23 434.785C268.23 434.785 256.285 442.413 243.253 434.785C238.91 432.605 237.824 429.336 237.824 427.157C237.824 423.888 237.824 423.888 237.824 423.888L273.66 422.798Z" fill="url(#paint48_linear_1912_1394)"/>
<path d="M243.253 416.26C243.253 416.26 255.198 408.632 268.23 416.26C280.175 423.888 268.23 430.426 268.23 430.426C268.23 430.426 256.284 438.054 243.253 430.426C231.307 423.888 243.253 416.26 243.253 416.26Z" fill="#FFCC3E"/>
<path d="M273.66 418.439C273.66 422.798 273.66 418.439 273.66 422.798C273.66 427.157 268.23 430.426 268.23 430.426C268.23 430.426 256.285 438.054 243.253 430.426C238.91 428.247 237.824 424.978 237.824 422.798C237.824 419.529 237.824 419.529 237.824 419.529L273.66 418.439Z" fill="url(#paint49_linear_1912_1394)"/>
<path d="M243.253 411.901C243.253 411.901 255.198 404.274 268.23 411.901C280.175 419.529 268.23 426.067 268.23 426.067C268.23 426.067 256.284 433.695 243.253 426.067C231.307 419.529 243.253 411.901 243.253 411.901Z" fill="#FFCC3E"/>
<path d="M273.66 414.081C273.66 418.439 273.66 414.081 273.66 418.439C273.66 422.798 268.23 426.067 268.23 426.067C268.23 426.067 256.285 433.695 243.253 426.067C238.91 423.888 237.824 420.619 237.824 418.439C237.824 415.17 237.824 415.17 237.824 415.17L273.66 414.081Z" fill="url(#paint50_linear_1912_1394)"/>
<path d="M243.253 407.543C243.253 407.543 255.198 399.915 268.23 407.543C280.175 415.17 268.23 421.709 268.23 421.709C268.23 421.709 256.284 429.336 243.253 421.709C231.307 415.17 243.253 407.543 243.253 407.543Z" fill="#FFCC3E"/>
<path d="M273.66 409.722C273.66 414.081 273.66 409.722 273.66 414.081C273.66 418.439 268.23 421.709 268.23 421.709C268.23 421.709 256.285 429.336 243.253 421.709C238.91 419.529 237.824 416.26 237.824 414.081C237.824 410.812 237.824 410.812 237.824 410.812L273.66 409.722Z" fill="url(#paint51_linear_1912_1394)"/>
<path d="M243.253 403.184C243.253 403.184 255.198 395.556 268.23 403.184C280.175 410.812 268.23 417.35 268.23 417.35C268.23 417.35 256.284 424.978 243.253 417.35C231.307 410.812 243.253 403.184 243.253 403.184Z" fill="#FFCC3E"/>
<path d="M273.66 405.363C273.66 409.722 273.66 405.363 273.66 409.722C273.66 414.081 268.23 417.35 268.23 417.35C268.23 417.35 256.285 424.978 243.253 417.35C238.91 415.17 237.824 411.901 237.824 409.722C237.824 406.453 237.824 406.453 237.824 406.453L273.66 405.363Z" fill="url(#paint52_linear_1912_1394)"/>
<path d="M243.253 399.915C243.253 399.915 255.198 392.287 268.23 399.915C280.175 407.543 268.23 414.081 268.23 414.081C268.23 414.081 256.284 421.709 243.253 414.081C231.307 406.453 243.253 399.915 243.253 399.915Z" fill="#FFCC3E"/>
<path d="M308.411 446.771C308.411 451.13 308.411 446.771 308.411 451.13C308.411 455.489 302.981 458.758 302.981 458.758C302.981 458.758 291.035 466.386 278.004 458.758C273.66 456.578 272.574 453.309 272.574 451.13C272.574 447.861 272.574 447.861 272.574 447.861L308.411 446.771Z" fill="url(#paint53_linear_1912_1394)"/>
<path d="M279.09 440.233C279.09 440.233 291.035 432.605 304.067 440.233C316.012 447.861 304.067 454.399 304.067 454.399C304.067 454.399 292.121 462.027 279.09 454.399C266.058 447.861 279.09 440.233 279.09 440.233Z" fill="#FFCC3E"/>
<path d="M308.411 442.413C308.411 446.771 308.411 442.413 308.411 446.771C308.411 451.13 302.981 454.399 302.981 454.399C302.981 454.399 291.035 462.027 278.004 454.399C273.66 452.22 272.574 448.951 272.574 446.771C272.574 443.502 272.574 443.502 272.574 443.502L308.411 442.413Z" fill="url(#paint54_linear_1912_1394)"/>
<path d="M279.09 435.874C279.09 435.874 291.035 428.247 304.067 435.874C316.012 443.502 304.067 450.04 304.067 450.04C304.067 450.04 292.121 457.668 279.09 450.04C266.058 443.502 279.09 435.874 279.09 435.874Z" fill="#FFCC3E"/>
<path d="M308.411 438.054C308.411 442.413 308.411 438.054 308.411 442.413C308.411 446.771 302.981 450.04 302.981 450.04C302.981 450.04 291.035 457.668 278.004 450.04C273.66 447.861 272.574 444.592 272.574 442.413C272.574 439.143 272.574 439.143 272.574 439.143L308.411 438.054Z" fill="url(#paint55_linear_1912_1394)"/>
<path d="M279.09 432.605C279.09 432.605 291.035 424.978 304.067 432.605C316.012 440.233 304.067 446.771 304.067 446.771C304.067 446.771 292.121 454.399 279.09 446.771C266.058 439.143 279.09 432.605 279.09 432.605Z" fill="#FFCC3E"/>
<path d="M308.411 434.785C308.411 439.144 308.411 434.785 308.411 439.144C308.411 443.502 302.981 446.771 302.981 446.771C302.981 446.771 291.035 454.399 278.004 446.771C273.66 444.592 272.574 441.323 272.574 439.144C272.574 435.874 272.574 435.874 272.574 435.874L308.411 434.785Z" fill="url(#paint56_linear_1912_1394)"/>
<path d="M279.09 428.247C279.09 428.247 291.035 420.619 304.067 428.247C316.012 435.874 304.067 442.413 304.067 442.413C304.067 442.413 292.121 450.04 279.09 442.413C266.058 434.785 279.09 428.247 279.09 428.247Z" fill="#FFCC3E"/>
<path d="M308.411 430.426C308.411 434.785 308.411 430.426 308.411 434.785C308.411 439.144 302.981 442.413 302.981 442.413C302.981 442.413 291.035 450.04 278.004 442.413C273.66 440.233 272.574 436.964 272.574 434.785C272.574 431.516 272.574 431.516 272.574 431.516L308.411 430.426Z" fill="url(#paint57_linear_1912_1394)"/>
<path d="M279.09 423.888C279.09 423.888 291.035 416.26 304.067 423.888C316.012 431.516 304.067 438.054 304.067 438.054C304.067 438.054 292.121 445.682 279.09 438.054C266.058 430.426 279.09 423.888 279.09 423.888Z" fill="#FFCC3E"/>
<path d="M308.411 426.067C308.411 430.426 308.411 426.067 308.411 430.426C308.411 434.785 302.981 438.054 302.981 438.054C302.981 438.054 291.035 445.682 278.004 438.054C273.66 435.874 272.574 432.605 272.574 430.426C272.574 427.157 272.574 427.157 272.574 427.157L308.411 426.067Z" fill="url(#paint58_linear_1912_1394)"/>
<path d="M279.09 419.529C279.09 419.529 291.035 411.901 304.067 419.529C316.012 427.157 304.067 433.695 304.067 433.695C304.067 433.695 292.121 441.323 279.09 433.695C266.058 426.067 279.09 419.529 279.09 419.529Z" fill="#FFCC3E"/>
<path d="M283.434 466.386C283.434 470.744 283.434 466.386 283.434 470.744C283.434 475.103 278.004 478.372 278.004 478.372C278.004 478.372 266.058 486 253.027 478.372C248.683 476.193 247.597 472.924 247.597 470.744C247.597 467.475 247.597 467.475 247.597 467.475L283.434 466.386Z" fill="url(#paint59_linear_1912_1394)"/>
<path d="M254.113 459.848C254.113 459.848 266.058 452.22 279.09 459.848C291.035 467.475 279.09 474.013 279.09 474.013C279.09 474.013 267.144 481.641 254.113 474.013C242.167 466.386 254.113 459.848 254.113 459.848Z" fill="#FFCC3E"/>
<path d="M283.434 462.027C283.434 466.386 283.434 462.027 283.434 466.386C283.434 470.744 278.004 474.013 278.004 474.013C278.004 474.013 266.058 481.641 253.027 474.013C248.683 471.834 247.597 468.565 247.597 466.386C247.597 463.117 247.597 463.117 247.597 463.117L283.434 462.027Z" fill="url(#paint60_linear_1912_1394)"/>
<path d="M254.113 455.489C254.113 455.489 266.058 447.861 279.09 455.489C291.035 463.117 279.09 469.655 279.09 469.655C279.09 469.655 267.144 477.282 254.113 469.655C242.167 462.027 254.113 455.489 254.113 455.489Z" fill="#FFCC3E"/>
<path d="M283.434 457.668C283.434 462.027 283.434 457.668 283.434 462.027C283.434 466.386 278.004 469.655 278.004 469.655C278.004 469.655 266.058 477.283 253.027 469.655C248.683 467.475 247.597 464.206 247.597 462.027C247.597 458.758 247.597 458.758 247.597 458.758L283.434 457.668Z" fill="url(#paint61_linear_1912_1394)"/>
<path d="M254.113 451.13C254.113 451.13 266.058 443.502 279.09 451.13C291.035 458.758 279.09 465.296 279.09 465.296C279.09 465.296 267.144 472.924 254.113 465.296C242.167 458.758 254.113 451.13 254.113 451.13Z" fill="#FFCC3E"/>
<path d="M243.253 466.386C243.253 470.744 243.253 466.386 243.253 470.744C243.253 475.103 237.824 478.372 237.824 478.372C237.824 478.372 225.878 486 212.847 478.372C208.503 476.193 207.417 472.924 207.417 470.744C207.417 467.475 207.417 467.475 207.417 467.475L243.253 466.386Z" fill="url(#paint62_linear_1912_1394)"/>
<path d="M212.846 459.848C212.846 459.848 224.792 452.22 237.823 459.848C249.769 467.475 237.823 474.013 237.823 474.013C237.823 474.013 225.878 481.641 212.846 474.013C200.901 467.475 212.846 459.848 212.846 459.848Z" fill="#FFCC3E"/>
<path d="M243.253 462.027C243.253 466.386 243.253 462.027 243.253 466.386C243.253 470.744 237.824 474.013 237.824 474.013C237.824 474.013 225.878 481.641 212.847 474.013C208.503 471.834 207.417 468.565 207.417 466.386C207.417 463.117 207.417 463.117 207.417 463.117L243.253 462.027Z" fill="url(#paint63_linear_1912_1394)"/>
<path d="M212.846 456.579C212.846 456.579 224.792 448.951 237.823 456.579C249.769 464.206 237.823 470.744 237.823 470.744C237.823 470.744 225.878 478.372 212.846 470.744C200.901 463.117 212.846 456.579 212.846 456.579Z" fill="#FFCC3E"/>
<path d="M194.386 460.937C194.386 465.296 194.386 460.937 194.386 465.296C194.386 469.655 188.956 472.924 188.956 472.924C188.956 472.924 177.01 480.552 163.979 472.924C159.635 470.744 158.549 467.475 158.549 465.296C158.549 462.027 158.549 462.027 158.549 462.027L194.386 460.937Z" fill="url(#paint64_linear_1912_1394)"/>
<path d="M165.065 454.399C165.065 454.399 177.01 446.771 190.042 454.399C201.987 462.027 190.042 468.565 190.042 468.565C190.042 468.565 178.096 476.193 165.065 468.565C153.119 460.937 165.065 454.399 165.065 454.399Z" fill="#FFCC3E"/>
</g>
<defs>
<linearGradient id="paint0_linear_1912_1394" x1="292.343" y1="463.238" x2="511.171" y2="391.889" gradientUnits="userSpaceOnUse">
<stop stop-color="#0BBD25"/>
<stop offset="1" stop-color="#0BBD25" stop-opacity="0"/>
</linearGradient>
<linearGradient id="paint1_linear_1912_1394" x1="308.266" y1="403.184" x2="422.392" y2="381.464" gradientUnits="userSpaceOnUse">
<stop stop-color="#0BBD25"/>
<stop offset="1" stop-color="#0BBD25" stop-opacity="0"/>
</linearGradient>
<linearGradient id="paint2_linear_1912_1394" x1="389.479" y1="392.287" x2="486.114" y2="377.684" gradientUnits="userSpaceOnUse">
<stop stop-color="#0BBD25"/>
<stop offset="1" stop-color="#0BBD25" stop-opacity="0"/>
</linearGradient>
<linearGradient id="paint3_linear_1912_1394" x1="398.016" y1="392.287" x2="487.69" y2="342.367" gradientUnits="userSpaceOnUse">
<stop stop-color="#0BBD25"/>
<stop offset="1" stop-color="#0BBD25" stop-opacity="0"/>
</linearGradient>
<linearGradient id="paint4_linear_1912_1394" x1="-24.9199" y1="451.403" x2="198.278" y2="371.06" gradientUnits="userSpaceOnUse">
<stop stop-color="#0BBD25"/>
<stop offset="1" stop-color="#0BBD25" stop-opacity="0"/>
</linearGradient>
<linearGradient id="paint5_linear_1912_1394" x1="-24.7377" y1="445.954" x2="216.227" y2="392.473" gradientUnits="userSpaceOnUse">
<stop stop-color="#0BBD25"/>
<stop offset="1" stop-color="#0BBD25" stop-opacity="0"/>
</linearGradient>
<linearGradient id="paint6_linear_1912_1394" x1="105.841" y1="341.112" x2="25.4485" y2="359.863" gradientUnits="userSpaceOnUse">
<stop stop-color="#0BBD25" stop-opacity="0"/>
<stop offset="0.34375" stop-color="#0BBD25"/>
<stop offset="0.59375" stop-color="#0BBD25"/>
<stop offset="1" stop-color="#0BBD25" stop-opacity="0"/>
</linearGradient>
<linearGradient id="paint7_linear_1912_1394" x1="262.506" y1="341.358" x2="279.983" y2="219.973" gradientUnits="userSpaceOnUse">
<stop stop-color="#25667A"/>
<stop offset="0.2743" stop-color="#256377"/>
<stop offset="0.4781" stop-color="#255A6E"/>
<stop offset="0.6591" stop-color="#24495F"/>
<stop offset="0.8258" stop-color="#243349"/>
<stop offset="0.9832" stop-color="#23162D"/>
</linearGradient>
<linearGradient id="paint8_linear_1912_1394" x1="265.821" y1="315.095" x2="290.145" y2="146.139" gradientUnits="userSpaceOnUse">
<stop stop-color="white"/>
<stop offset="0.0716248" stop-color="#F5F5F5"/>
<stop offset="0.1919" stop-color="#DBDBDB"/>
<stop offset="0.3459" stop-color="#B1B1B1"/>
<stop offset="0.5279" stop-color="#767676"/>
<stop offset="0.731" stop-color="#2C2C2C"/>
<stop offset="0.8432"/>
</linearGradient>
<linearGradient id="paint9_linear_1912_1394" x1="265.821" y1="315.095" x2="290.145" y2="146.139" gradientUnits="userSpaceOnUse">
<stop stop-color="#8FEAFF"/>
<stop offset="0.0811762" stop-color="#8AE0F6"/>
<stop offset="0.2173" stop-color="#7EC6DD"/>
<stop offset="0.3918" stop-color="#699CB5"/>
<stop offset="0.5977" stop-color="#4D617E"/>
<stop offset="0.828" stop-color="#291738"/>
<stop offset="0.8432" stop-color="#271233"/>
</linearGradient>
<linearGradient id="paint10_linear_1912_1394" x1="248.758" y1="334.869" x2="249.503" y2="369.581" gradientUnits="userSpaceOnUse">
<stop stop-color="#C1FFCA"/>
<stop offset="1" stop-color="#0D4716"/>
</linearGradient>
<linearGradient id="paint11_linear_1912_1394" x1="279.164" y1="272.07" x2="282.765" y2="348.301" gradientUnits="userSpaceOnUse">
<stop stop-color="#C1FFCA"/>
<stop offset="1" stop-color="#0D4716"/>
</linearGradient>
<linearGradient id="paint12_linear_1912_1394" x1="308.485" y1="224.393" x2="315.167" y2="328.145" gradientUnits="userSpaceOnUse">
<stop stop-color="#C1FFCA"/>
<stop offset="1" stop-color="#0D4716"/>
</linearGradient>
<linearGradient id="paint13_linear_1912_1394" x1="338.892" y1="252.322" x2="341.304" y2="314.738" gradientUnits="userSpaceOnUse">
<stop stop-color="#FFC7C7"/>
<stop offset="1" stop-color="#490D0D"/>
</linearGradient>
<linearGradient id="paint14_linear_1912_1394" x1="369.298" y1="204.644" x2="374.322" y2="294.655" gradientUnits="userSpaceOnUse">
<stop stop-color="#C1FFCA"/>
<stop offset="1" stop-color="#0D4716"/>
</linearGradient>
<linearGradient id="paint15_linear_1912_1394" x1="399.157" y1="156.967" x2="408.381" y2="274.314" gradientUnits="userSpaceOnUse">
<stop stop-color="#C1FFCA"/>
<stop offset="1" stop-color="#0D4716"/>
</linearGradient>
<linearGradient id="paint16_linear_1912_1394" x1="429.026" y1="109.289" x2="442.071" y2="253.968" gradientUnits="userSpaceOnUse">
<stop stop-color="#C1FFCA"/>
<stop offset="1" stop-color="#0D4716"/>
</linearGradient>
<linearGradient id="paint17_linear_1912_1394" x1="233.554" y1="334.869" x2="231.569" y2="372.437" gradientUnits="userSpaceOnUse">
<stop stop-color="#37B349"/>
<stop offset="1" stop-color="#052D0B"/>
</linearGradient>
<linearGradient id="paint18_linear_1912_1394" x1="263.961" y1="272.07" x2="254.454" y2="353.844" gradientUnits="userSpaceOnUse">
<stop stop-color="#37B349"/>
<stop offset="1" stop-color="#052D0B"/>
</linearGradient>
<linearGradient id="paint19_linear_1912_1394" x1="293.819" y1="224.393" x2="275.071" y2="334.209" gradientUnits="userSpaceOnUse">
<stop stop-color="#37B349"/>
<stop offset="1" stop-color="#052D0B"/>
</linearGradient>
<linearGradient id="paint20_linear_1912_1394" x1="323.689" y1="252.322" x2="317.296" y2="319.524" gradientUnits="userSpaceOnUse">
<stop stop-color="#B53838"/>
<stop offset="1" stop-color="#310505"/>
</linearGradient>
<linearGradient id="paint21_linear_1912_1394" x1="354.095" y1="204.644" x2="340.887" y2="300.778" gradientUnits="userSpaceOnUse">
<stop stop-color="#37B349"/>
<stop offset="1" stop-color="#052D0B"/>
</linearGradient>
<linearGradient id="paint22_linear_1912_1394" x1="384.502" y1="156.967" x2="362.209" y2="281.047" gradientUnits="userSpaceOnUse">
<stop stop-color="#37B349"/>
<stop offset="1" stop-color="#052D0B"/>
</linearGradient>
<linearGradient id="paint23_linear_1912_1394" x1="413.823" y1="109.289" x2="380.355" y2="260.085" gradientUnits="userSpaceOnUse">
<stop stop-color="#37B349"/>
<stop offset="1" stop-color="#052D0B"/>
</linearGradient>
<linearGradient id="paint24_linear_1912_1394" x1="269.294" y1="439.152" x2="304.692" y2="439.152" gradientUnits="userSpaceOnUse">
<stop stop-color="#CC9903"/>
<stop offset="0.2609" stop-color="#CA9604"/>
<stop offset="0.4752" stop-color="#C48C08"/>
<stop offset="0.673" stop-color="#BA7A0F"/>
<stop offset="0.8596" stop-color="#AC6218"/>
<stop offset="1" stop-color="#9E4B21"/>
</linearGradient>
<linearGradient id="paint25_linear_1912_1394" x1="269.294" y1="434.928" x2="304.692" y2="434.928" gradientUnits="userSpaceOnUse">
<stop stop-color="#CC9903"/>
<stop offset="0.2609" stop-color="#CA9604"/>
<stop offset="0.4752" stop-color="#C48C08"/>
<stop offset="0.673" stop-color="#BA7A0F"/>
<stop offset="0.8596" stop-color="#AC6218"/>
<stop offset="1" stop-color="#9E4B21"/>
</linearGradient>
<linearGradient id="paint26_linear_1912_1394" x1="269.294" y1="430.704" x2="304.692" y2="430.704" gradientUnits="userSpaceOnUse">
<stop stop-color="#CC9903"/>
<stop offset="0.2609" stop-color="#CA9604"/>
<stop offset="0.4752" stop-color="#C48C08"/>
<stop offset="0.673" stop-color="#BA7A0F"/>
<stop offset="0.8596" stop-color="#AC6218"/>
<stop offset="1" stop-color="#9E4B21"/>
</linearGradient>
<linearGradient id="paint27_linear_1912_1394" x1="269.294" y1="426.479" x2="304.692" y2="426.479" gradientUnits="userSpaceOnUse">
<stop stop-color="#CC9903"/>
<stop offset="0.2609" stop-color="#CA9604"/>
<stop offset="0.4752" stop-color="#C48C08"/>
<stop offset="0.673" stop-color="#BA7A0F"/>
<stop offset="0.8596" stop-color="#AC6218"/>
<stop offset="1" stop-color="#9E4B21"/>
</linearGradient>
<linearGradient id="paint28_linear_1912_1394" x1="269.294" y1="422.254" x2="304.692" y2="422.254" gradientUnits="userSpaceOnUse">
<stop stop-color="#CC9903"/>
<stop offset="0.2609" stop-color="#CA9604"/>
<stop offset="0.4752" stop-color="#C48C08"/>
<stop offset="0.673" stop-color="#BA7A0F"/>
<stop offset="0.8596" stop-color="#AC6218"/>
<stop offset="1" stop-color="#9E4B21"/>
</linearGradient>
<linearGradient id="paint29_linear_1912_1394" x1="269.294" y1="418.03" x2="304.692" y2="418.03" gradientUnits="userSpaceOnUse">
<stop stop-color="#CC9903"/>
<stop offset="0.2609" stop-color="#CA9604"/>
<stop offset="0.4752" stop-color="#C48C08"/>
<stop offset="0.673" stop-color="#BA7A0F"/>
<stop offset="0.8596" stop-color="#AC6218"/>
<stop offset="1" stop-color="#9E4B21"/>
</linearGradient>
<linearGradient id="paint30_linear_1912_1394" x1="269.294" y1="413.805" x2="304.692" y2="413.805" gradientUnits="userSpaceOnUse">
<stop stop-color="#CC9903"/>
<stop offset="0.2609" stop-color="#CA9604"/>
<stop offset="0.4752" stop-color="#C48C08"/>
<stop offset="0.673" stop-color="#BA7A0F"/>
<stop offset="0.8596" stop-color="#AC6218"/>
<stop offset="1" stop-color="#9E4B21"/>
</linearGradient>
<linearGradient id="paint31_linear_1912_1394" x1="269.294" y1="409.581" x2="304.692" y2="409.581" gradientUnits="userSpaceOnUse">
<stop stop-color="#CC9903"/>
<stop offset="0.2609" stop-color="#CA9604"/>
<stop offset="0.4752" stop-color="#C48C08"/>
<stop offset="0.673" stop-color="#BA7A0F"/>
<stop offset="0.8596" stop-color="#AC6218"/>
<stop offset="1" stop-color="#9E4B21"/>
</linearGradient>
<linearGradient id="paint32_linear_1912_1394" x1="269.294" y1="405.357" x2="304.692" y2="405.357" gradientUnits="userSpaceOnUse">
<stop stop-color="#CC9903"/>
<stop offset="0.2609" stop-color="#CA9604"/>
<stop offset="0.4752" stop-color="#C48C08"/>
<stop offset="0.673" stop-color="#BA7A0F"/>
<stop offset="0.8596" stop-color="#AC6218"/>
<stop offset="1" stop-color="#9E4B21"/>
</linearGradient>
<linearGradient id="paint33_linear_1912_1394" x1="269.294" y1="401.132" x2="304.692" y2="401.132" gradientUnits="userSpaceOnUse">
<stop stop-color="#CC9903"/>
<stop offset="0.2609" stop-color="#CA9604"/>
<stop offset="0.4752" stop-color="#C48C08"/>
<stop offset="0.673" stop-color="#BA7A0F"/>
<stop offset="0.8596" stop-color="#AC6218"/>
<stop offset="1" stop-color="#9E4B21"/>
</linearGradient>
<linearGradient id="paint34_linear_1912_1394" x1="269.294" y1="396.907" x2="304.692" y2="396.907" gradientUnits="userSpaceOnUse">
<stop stop-color="#CC9903"/>
<stop offset="0.2609" stop-color="#CA9604"/>
<stop offset="0.4752" stop-color="#C48C08"/>
<stop offset="0.673" stop-color="#BA7A0F"/>
<stop offset="0.8596" stop-color="#AC6218"/>
<stop offset="1" stop-color="#9E4B21"/>
</linearGradient>
<linearGradient id="paint35_linear_1912_1394" x1="269.294" y1="392.684" x2="304.692" y2="392.684" gradientUnits="userSpaceOnUse">
<stop stop-color="#CC9903"/>
<stop offset="0.2609" stop-color="#CA9604"/>
<stop offset="0.4752" stop-color="#C48C08"/>
<stop offset="0.673" stop-color="#BA7A0F"/>
<stop offset="0.8596" stop-color="#AC6218"/>
<stop offset="1" stop-color="#9E4B21"/>
</linearGradient>
<linearGradient id="paint36_linear_1912_1394" x1="269.294" y1="388.459" x2="304.692" y2="388.459" gradientUnits="userSpaceOnUse">
<stop stop-color="#CC9903"/>
<stop offset="0.2609" stop-color="#CA9604"/>
<stop offset="0.4752" stop-color="#C48C08"/>
<stop offset="0.673" stop-color="#BA7A0F"/>
<stop offset="0.8596" stop-color="#AC6218"/>
<stop offset="1" stop-color="#9E4B21"/>
</linearGradient>
<linearGradient id="paint37_linear_1912_1394" x1="269.294" y1="384.234" x2="304.692" y2="384.234" gradientUnits="userSpaceOnUse">
<stop stop-color="#CC9903"/>
<stop offset="0.2609" stop-color="#CA9604"/>
<stop offset="0.4752" stop-color="#C48C08"/>
<stop offset="0.673" stop-color="#BA7A0F"/>
<stop offset="0.8596" stop-color="#AC6218"/>
<stop offset="1" stop-color="#9E4B21"/>
</linearGradient>
<linearGradient id="paint38_linear_1912_1394" x1="269.294" y1="380.01" x2="304.692" y2="380.01" gradientUnits="userSpaceOnUse">
<stop stop-color="#CC9903"/>
<stop offset="0.2609" stop-color="#CA9604"/>
<stop offset="0.4752" stop-color="#C48C08"/>
<stop offset="0.673" stop-color="#BA7A0F"/>
<stop offset="0.8596" stop-color="#AC6218"/>
<stop offset="1" stop-color="#9E4B21"/>
</linearGradient>
<linearGradient id="paint39_linear_1912_1394" x1="198.354" y1="448.106" x2="233.752" y2="448.106" gradientUnits="userSpaceOnUse">
<stop stop-color="#CC9903"/>
<stop offset="0.2609" stop-color="#CA9604"/>
<stop offset="0.4752" stop-color="#C48C08"/>
<stop offset="0.673" stop-color="#BA7A0F"/>
<stop offset="0.8596" stop-color="#AC6218"/>
<stop offset="1" stop-color="#9E4B21"/>
</linearGradient>
<linearGradient id="paint40_linear_1912_1394" x1="198.354" y1="443.881" x2="233.752" y2="443.881" gradientUnits="userSpaceOnUse">
<stop stop-color="#CC9903"/>
<stop offset="0.2609" stop-color="#CA9604"/>
<stop offset="0.4752" stop-color="#C48C08"/>
<stop offset="0.673" stop-color="#BA7A0F"/>
<stop offset="0.8596" stop-color="#AC6218"/>
<stop offset="1" stop-color="#9E4B21"/>
</linearGradient>
<linearGradient id="paint41_linear_1912_1394" x1="198.354" y1="439.658" x2="233.752" y2="439.658" gradientUnits="userSpaceOnUse">
<stop stop-color="#CC9903"/>
<stop offset="0.2609" stop-color="#CA9604"/>
<stop offset="0.4752" stop-color="#C48C08"/>
<stop offset="0.673" stop-color="#BA7A0F"/>
<stop offset="0.8596" stop-color="#AC6218"/>
<stop offset="1" stop-color="#9E4B21"/>
</linearGradient>
<linearGradient id="paint42_linear_1912_1394" x1="198.354" y1="435.433" x2="233.752" y2="435.433" gradientUnits="userSpaceOnUse">
<stop stop-color="#CC9903"/>
<stop offset="0.2609" stop-color="#CA9604"/>
<stop offset="0.4752" stop-color="#C48C08"/>
<stop offset="0.673" stop-color="#BA7A0F"/>
<stop offset="0.8596" stop-color="#AC6218"/>
<stop offset="1" stop-color="#9E4B21"/>
</linearGradient>
<linearGradient id="paint43_linear_1912_1394" x1="237.766" y1="450.976" x2="273.166" y2="450.976" gradientUnits="userSpaceOnUse">
<stop stop-color="#CC9903"/>
<stop offset="0.2609" stop-color="#CA9604"/>
<stop offset="0.4752" stop-color="#C48C08"/>
<stop offset="0.673" stop-color="#BA7A0F"/>
<stop offset="0.8596" stop-color="#AC6218"/>
<stop offset="1" stop-color="#9E4B21"/>
</linearGradient>
<linearGradient id="paint44_linear_1912_1394" x1="237.766" y1="446.752" x2="273.166" y2="446.752" gradientUnits="userSpaceOnUse">
<stop stop-color="#CC9903"/>
<stop offset="0.2609" stop-color="#CA9604"/>
<stop offset="0.4752" stop-color="#C48C08"/>
<stop offset="0.673" stop-color="#BA7A0F"/>
<stop offset="0.8596" stop-color="#AC6218"/>
<stop offset="1" stop-color="#9E4B21"/>
</linearGradient>
<linearGradient id="paint45_linear_1912_1394" x1="237.766" y1="442.528" x2="273.166" y2="442.528" gradientUnits="userSpaceOnUse">
<stop stop-color="#CC9903"/>
<stop offset="0.2609" stop-color="#CA9604"/>
<stop offset="0.4752" stop-color="#C48C08"/>
<stop offset="0.673" stop-color="#BA7A0F"/>
<stop offset="0.8596" stop-color="#AC6218"/>
<stop offset="1" stop-color="#9E4B21"/>
</linearGradient>
<linearGradient id="paint46_linear_1912_1394" x1="237.766" y1="438.303" x2="273.166" y2="438.303" gradientUnits="userSpaceOnUse">
<stop stop-color="#CC9903"/>
<stop offset="0.2609" stop-color="#CA9604"/>
<stop offset="0.4752" stop-color="#C48C08"/>
<stop offset="0.673" stop-color="#BA7A0F"/>
<stop offset="0.8596" stop-color="#AC6218"/>
<stop offset="1" stop-color="#9E4B21"/>
</linearGradient>
<linearGradient id="paint47_linear_1912_1394" x1="237.766" y1="434.079" x2="273.166" y2="434.079" gradientUnits="userSpaceOnUse">
<stop stop-color="#CC9903"/>
<stop offset="0.2609" stop-color="#CA9604"/>
<stop offset="0.4752" stop-color="#C48C08"/>
<stop offset="0.673" stop-color="#BA7A0F"/>
<stop offset="0.8596" stop-color="#AC6218"/>
<stop offset="1" stop-color="#9E4B21"/>
</linearGradient>
<linearGradient id="paint48_linear_1912_1394" x1="237.766" y1="429.854" x2="273.166" y2="429.854" gradientUnits="userSpaceOnUse">
<stop stop-color="#CC9903"/>
<stop offset="0.2609" stop-color="#CA9604"/>
<stop offset="0.4752" stop-color="#C48C08"/>
<stop offset="0.673" stop-color="#BA7A0F"/>
<stop offset="0.8596" stop-color="#AC6218"/>
<stop offset="1" stop-color="#9E4B21"/>
</linearGradient>
<linearGradient id="paint49_linear_1912_1394" x1="237.766" y1="425.63" x2="273.166" y2="425.63" gradientUnits="userSpaceOnUse">
<stop stop-color="#CC9903"/>
<stop offset="0.2609" stop-color="#CA9604"/>
<stop offset="0.4752" stop-color="#C48C08"/>
<stop offset="0.673" stop-color="#BA7A0F"/>
<stop offset="0.8596" stop-color="#AC6218"/>
<stop offset="1" stop-color="#9E4B21"/>
</linearGradient>
<linearGradient id="paint50_linear_1912_1394" x1="237.766" y1="421.406" x2="273.166" y2="421.406" gradientUnits="userSpaceOnUse">
<stop stop-color="#CC9903"/>
<stop offset="0.2609" stop-color="#CA9604"/>
<stop offset="0.4752" stop-color="#C48C08"/>
<stop offset="0.673" stop-color="#BA7A0F"/>
<stop offset="0.8596" stop-color="#AC6218"/>
<stop offset="1" stop-color="#9E4B21"/>
</linearGradient>
<linearGradient id="paint51_linear_1912_1394" x1="237.766" y1="417.181" x2="273.166" y2="417.181" gradientUnits="userSpaceOnUse">
<stop stop-color="#CC9903"/>
<stop offset="0.2609" stop-color="#CA9604"/>
<stop offset="0.4752" stop-color="#C48C08"/>
<stop offset="0.673" stop-color="#BA7A0F"/>
<stop offset="0.8596" stop-color="#AC6218"/>
<stop offset="1" stop-color="#9E4B21"/>
</linearGradient>
<linearGradient id="paint52_linear_1912_1394" x1="237.766" y1="412.956" x2="273.166" y2="412.956" gradientUnits="userSpaceOnUse">
<stop stop-color="#CC9903"/>
<stop offset="0.2609" stop-color="#CA9604"/>
<stop offset="0.4752" stop-color="#C48C08"/>
<stop offset="0.673" stop-color="#BA7A0F"/>
<stop offset="0.8596" stop-color="#AC6218"/>
<stop offset="1" stop-color="#9E4B21"/>
</linearGradient>
<linearGradient id="paint53_linear_1912_1394" x1="273.173" y1="454.086" x2="308.572" y2="454.086" gradientUnits="userSpaceOnUse">
<stop stop-color="#CC9903"/>
<stop offset="0.2609" stop-color="#CA9604"/>
<stop offset="0.4752" stop-color="#C48C08"/>
<stop offset="0.673" stop-color="#BA7A0F"/>
<stop offset="0.8596" stop-color="#AC6218"/>
<stop offset="1" stop-color="#9E4B21"/>
</linearGradient>
<linearGradient id="paint54_linear_1912_1394" x1="273.173" y1="449.862" x2="308.572" y2="449.862" gradientUnits="userSpaceOnUse">
<stop stop-color="#CC9903"/>
<stop offset="0.2609" stop-color="#CA9604"/>
<stop offset="0.4752" stop-color="#C48C08"/>
<stop offset="0.673" stop-color="#BA7A0F"/>
<stop offset="0.8596" stop-color="#AC6218"/>
<stop offset="1" stop-color="#9E4B21"/>
</linearGradient>
<linearGradient id="paint55_linear_1912_1394" x1="273.173" y1="445.637" x2="308.572" y2="445.637" gradientUnits="userSpaceOnUse">
<stop stop-color="#CC9903"/>
<stop offset="0.2609" stop-color="#CA9604"/>
<stop offset="0.4752" stop-color="#C48C08"/>
<stop offset="0.673" stop-color="#BA7A0F"/>
<stop offset="0.8596" stop-color="#AC6218"/>
<stop offset="1" stop-color="#9E4B21"/>
</linearGradient>
<linearGradient id="paint56_linear_1912_1394" x1="273.173" y1="441.412" x2="308.572" y2="441.412" gradientUnits="userSpaceOnUse">
<stop stop-color="#CC9903"/>
<stop offset="0.2609" stop-color="#CA9604"/>
<stop offset="0.4752" stop-color="#C48C08"/>
<stop offset="0.673" stop-color="#BA7A0F"/>
<stop offset="0.8596" stop-color="#AC6218"/>
<stop offset="1" stop-color="#9E4B21"/>
</linearGradient>
<linearGradient id="paint57_linear_1912_1394" x1="273.173" y1="437.188" x2="308.572" y2="437.188" gradientUnits="userSpaceOnUse">
<stop stop-color="#CC9903"/>
<stop offset="0.2609" stop-color="#CA9604"/>
<stop offset="0.4752" stop-color="#C48C08"/>
<stop offset="0.673" stop-color="#BA7A0F"/>
<stop offset="0.8596" stop-color="#AC6218"/>
<stop offset="1" stop-color="#9E4B21"/>
</linearGradient>
<linearGradient id="paint58_linear_1912_1394" x1="273.173" y1="432.964" x2="308.572" y2="432.964" gradientUnits="userSpaceOnUse">
<stop stop-color="#CC9903"/>
<stop offset="0.2609" stop-color="#CA9604"/>
<stop offset="0.4752" stop-color="#C48C08"/>
<stop offset="0.673" stop-color="#BA7A0F"/>
<stop offset="0.8596" stop-color="#AC6218"/>
<stop offset="1" stop-color="#9E4B21"/>
</linearGradient>
<linearGradient id="paint59_linear_1912_1394" x1="248.541" y1="473.244" x2="283.94" y2="473.244" gradientUnits="userSpaceOnUse">
<stop stop-color="#CC9903"/>
<stop offset="0.2609" stop-color="#CA9604"/>
<stop offset="0.4752" stop-color="#C48C08"/>
<stop offset="0.673" stop-color="#BA7A0F"/>
<stop offset="0.8596" stop-color="#AC6218"/>
<stop offset="1" stop-color="#9E4B21"/>
</linearGradient>
<linearGradient id="paint60_linear_1912_1394" x1="248.541" y1="469.019" x2="283.94" y2="469.019" gradientUnits="userSpaceOnUse">
<stop stop-color="#CC9903"/>
<stop offset="0.2609" stop-color="#CA9604"/>
<stop offset="0.4752" stop-color="#C48C08"/>
<stop offset="0.673" stop-color="#BA7A0F"/>
<stop offset="0.8596" stop-color="#AC6218"/>
<stop offset="1" stop-color="#9E4B21"/>
</linearGradient>
<linearGradient id="paint61_linear_1912_1394" x1="248.541" y1="464.795" x2="283.94" y2="464.795" gradientUnits="userSpaceOnUse">
<stop stop-color="#CC9903"/>
<stop offset="0.2609" stop-color="#CA9604"/>
<stop offset="0.4752" stop-color="#C48C08"/>
<stop offset="0.673" stop-color="#BA7A0F"/>
<stop offset="0.8596" stop-color="#AC6218"/>
<stop offset="1" stop-color="#9E4B21"/>
</linearGradient>
<linearGradient id="paint62_linear_1912_1394" x1="207.325" y1="473.824" x2="242.725" y2="473.824" gradientUnits="userSpaceOnUse">
<stop stop-color="#CC9903"/>
<stop offset="0.2609" stop-color="#CA9604"/>
<stop offset="0.4752" stop-color="#C48C08"/>
<stop offset="0.673" stop-color="#BA7A0F"/>
<stop offset="0.8596" stop-color="#AC6218"/>
<stop offset="1" stop-color="#9E4B21"/>
</linearGradient>
<linearGradient id="paint63_linear_1912_1394" x1="207.325" y1="469.599" x2="242.725" y2="469.599" gradientUnits="userSpaceOnUse">
<stop stop-color="#CC9903"/>
<stop offset="0.2609" stop-color="#CA9604"/>
<stop offset="0.4752" stop-color="#C48C08"/>
<stop offset="0.673" stop-color="#BA7A0F"/>
<stop offset="0.8596" stop-color="#AC6218"/>
<stop offset="1" stop-color="#9E4B21"/>
</linearGradient>
<linearGradient id="paint64_linear_1912_1394" x1="159.505" y1="467.941" x2="194.904" y2="467.941" gradientUnits="userSpaceOnUse">
<stop stop-color="#CC9903"/>
<stop offset="0.2609" stop-color="#CA9604"/>
<stop offset="0.4752" stop-color="#C48C08"/>
<stop offset="0.673" stop-color="#BA7A0F"/>
<stop offset="0.8596" stop-color="#AC6218"/>
<stop offset="1" stop-color="#9E4B21"/>
</linearGradient>
<clipPath id="clip0_1912_1394">
<rect width="518" height="486" fill="white"/>
</clipPath>
</defs>
</svg>
